<svg xmlns="http://www.w3.org/2000/svg" width="20" height="15" viewBox="0 0 20 15"><path d="M19.062-15H18.75v.781a.47.47,0,0,1-.469.469H16.719a.47.47,0,0,1-.469-.469V-15H3.75v.781a.47.47,0,0,1-.469.469H1.719a.47.47,0,0,1-.469-.469V-15H.937A.935.935,0,0,0,0-14.062V-.937A.935.935,0,0,0,.937,0H1.25V-.781a.47.47,0,0,1,.469-.469H3.281a.47.47,0,0,1,.469.469V0h12.5V-.781a.47.47,0,0,1,.469-.469h1.562a.47.47,0,0,1,.469.469V0h.313A.935.935,0,0,0,20-.937V-14.062A.935.935,0,0,0,19.062-15ZM3.75-2.969a.47.47,0,0,1-.469.469H1.719a.47.47,0,0,1-.469-.469V-4.531A.47.47,0,0,1,1.719-5H3.281a.47.47,0,0,1,.469.469Zm0-3.75a.47.47,0,0,1-.469.469H1.719a.47.47,0,0,1-.469-.469V-8.281a.47.47,0,0,1,.469-.469H3.281a.47.47,0,0,1,.469.469Zm0-3.75A.47.47,0,0,1,3.281-10H1.719a.47.47,0,0,1-.469-.469v-1.562a.47.47,0,0,1,.469-.469H3.281a.47.47,0,0,1,.469.469ZM14.687-2.344a.47.47,0,0,1-.469.469H5.781a.47.47,0,0,1-.469-.469V-12.656a.47.47,0,0,1,.469-.469h8.437a.47.47,0,0,1,.469.469Zm4.062-.625a.47.47,0,0,1-.469.469H16.719a.47.47,0,0,1-.469-.469V-4.531A.47.47,0,0,1,16.719-5h1.562a.47.47,0,0,1,.469.469Zm0-3.75a.47.47,0,0,1-.469.469H16.719a.47.47,0,0,1-.469-.469V-8.281a.47.47,0,0,1,.469-.469h1.562a.47.47,0,0,1,.469.469Zm0-3.75a.47.47,0,0,1-.469.469H16.719a.47.47,0,0,1-.469-.469v-1.562a.47.47,0,0,1,.469-.469h1.562a.47.47,0,0,1,.469.469Z" transform="translate(0 15)"/></svg>