<svg id="Layer_1" data-name="Layer 1" xmlns="http://www.w3.org/2000/svg" viewBox="0 0 200 200">
  <defs>
    <style>
      .cls-1 {
        fill: #4d4d4d;
      }

      .cls-2 {
        fill: #41b883;
      }

      .cls-3 {
        fill: #c0c2c4;
      }

      .cls-4 {
        fill: #333;
      }

      .cls-5 {
        fill: #2e363a;
      }

      .cls-6 {
        fill: #e1e3e3;
      }

      .cls-7 {
        fill: #83e5b6;
      }

      .cls-8 {
        fill: #35495e;
      }
    </style>
  </defs>
  <title>kendoka-vue</title>
  <g>
    <path class="cls-1" d="M148.17,96.13a8.71,8.71,0,0,1-11.82,3.43l-2.54-1.4a8.71,8.71,0,0,1-3.42-11.82l16.86-30.61a8.7,8.7,0,0,1,11.82-3.42l2.54,1.39A8.7,8.7,0,0,1,165,65.52Z"/>
    <path class="cls-2" d="M161.64,64.84h0l-.36.05-.36,0h0c-2.24.28-9.23.72-14.25-3.54,0-.11-.22-16.27,1-27.21,0,0,0-3,8.34-4.35h0l.23,0,.24,0h0c8.32-1.13,9.24,1.73,9.24,1.73,4.58,10.47,8.51,25.78,8.51,25.78C170.68,62.83,163.86,64.45,161.64,64.84Z"/>
    <path class="cls-2" d="M145.52,28.82c.87,5.83,6.12,6.43,11.95,5.56s10-2.88,9.16-8.71a10.67,10.67,0,1,0-21.11,3.15Z"/>
    <path class="cls-3" d="M162.85,33.12c.2-1.07.44-2.69,1.28-2.54l23.72,3.68c.83.16,1.61,2.54,1.41,3.62h0c-.2,1.08-1.8,3.16-2.63,3L162.51,37c-.84-.16.14-2.8.34-3.87Z"/>
    <path class="cls-2" d="M140.16,184.92a15.74,15.74,0,0,0,2,.13h11.41a3.8,3.8,0,0,0,3.8-3.8V177.8Z"/>
    <path class="cls-2" d="M14.85,168.78v9.43a4.3,4.3,0,0,0,4.29,4.3H32a17.18,17.18,0,0,0,9.32-2.77,4.59,4.59,0,0,1-.48-.17L15.11,168.9C15,168.86,14.94,168.81,14.85,168.78Z"/>
    <path class="cls-1" d="M15.81,171.48l23.91,8.79c6.4,2.65,30.81,3.63,41-5.44,5-4.48,64.88-45.3,43.94-59.8-14.48-10-36.33,6.52-58.44,17.4L14.35,159.61C7.46,166.5,11.74,169.79,15.81,171.48Z"/>
    <path class="cls-1" d="M156,180l-22.1,9.16c-6.4,2.65-14.39.68-17.17-.47l-15.33-8.15a7.1,7.1,0,0,1-3.84-9.28l4.9-8.1c.16-.42,7-11.09,7.24-11.6,2.72-8.74-1.33-19.15,7.79-22.93,16.27-6.74,44.58,17.76,45.67,21.75s-.9,19.49-.9,19.49C162,175,160,178.34,156,180Z"/>
    <g>
      <path class="cls-2" d="M93,144.67a4.09,4.09,0,0,0,2.48,5.22l9.1,3.24c-.29-.22,9.19,4,14.84,2.46l13.09-3.51a4.5,4.5,0,0,0,3.2-5.53l-3.5-13.09a18.07,18.07,0,0,0-33.72-3.22,16.67,16.67,0,0,0-1.37,2.89Z"/>
      <path class="cls-2" d="M135.08,133.87l3.31,12.39a19.87,19.87,0,0,0,3.82-.34l14.53-2.77a4.93,4.93,0,0,0,3.84-3.62,46.94,46.94,0,0,1-14.15-31,19.66,19.66,0,0,0-25.38,9A25,25,0,0,1,135.08,133.87Z"/>
      <path class="cls-2" d="M71.06,127.6a4.88,4.88,0,0,0,2.74,4.45L87,138.43a20.3,20.3,0,0,0,3.58,1.31l6.35-11a24.79,24.79,0,0,1,17.64-12.09,19.47,19.47,0,0,0-22-15.09,46.35,46.35,0,0,1-15.88,22.34A46.94,46.94,0,0,1,71.06,127.6Z"/>
    </g>
    <path d="M115.34,129.21h0l.88.12.87.11h0c5.42.63,22.3,1.94,33.71-4.26,0,0,.7-19.05-4.23-36.87,0,0-3.16-5-23.31-7.86h0l-.58-.07-.58-.08h0c-20.19-2.5-24.54,1.53-24.54,1.53C88.18,97.76,83.9,116.34,83.9,116.34,93.3,125.29,110,128.41,115.34,129.21Z"/>
    <path class="cls-2" d="M80.81,74.4a4.77,4.77,0,0,0,.85,5.49l9.22,8.51c6.78,6.25,17.27,4.84,23.42-3.15S120,65.7,113.16,59.44a14.51,14.51,0,0,0-4.27-2.76,34.36,34.36,0,0,1-3.88,5.7A33.71,33.71,0,0,1,80.81,74.4Z"/>
    <path class="cls-2" d="M160,90.45a4.8,4.8,0,0,1-3.13,4.65l-12,3.83c-8.86,2.81-17.82-3-20-12.86S128,65.83,136.88,63a15,15,0,0,1,5.08-.69,33.38,33.38,0,0,0,1.11,6.85A33.88,33.88,0,0,0,160,90.45Z"/>
    <path class="cls-4" d="M121.47,91.13l15.19-13.24c11.18-9.75,13.55-27.65,5.28-40s-24-14.41-35.22-4.66-13.55,27.64-5.28,40L112.66,90A5.77,5.77,0,0,0,121.47,91.13Z"/>
    <path class="cls-3" d="M123.23,31.52c10.52,1.39,17.63,13.2,15.89,26.38s-11.68,22.72-22.2,21.33S99.3,66,101,52.87,112.71,30.13,123.23,31.52Z"/>
    <g>
      <path class="cls-5" d="M150.53,113.45c-.05-.74-.1-1.51-.15-2.29-11.17,4.82-26.42,3.46-31.06,2.89l-.52-.07-.33,0-.43-.06-.43-.07c-4.67-.73-20.06-3.67-29.46-11.62-.27.75-.53,1.47-.77,2.18,9.64,7.74,24.47,10.71,29.55,11.54l.33,0,.77.12.27,0,.77.1,1.05.11C125.73,116.94,139.68,117.83,150.53,113.45Z"/>
      <path class="cls-5" d="M116.17,123.67l.78.12.28,0,.78.1,1,.12c5.83.63,20.57,1.57,31.71-3.24,0-.73,0-1.51,0-2.38-11.44,5.37-27.63,3.93-32.47,3.34l-.52-.07-.35,0-.45-.06-.42-.07c-4.88-.76-21.23-3.89-30.7-12.45-.26.82-.49,1.58-.7,2.28,9.77,8.26,25.39,11.41,30.69,12.27Z"/>
      <path class="cls-5" d="M120.25,107l-.49-.06-.3,0-.4-.06-.41-.06c-4.42-.7-19.18-3.52-27.88-11.2l-.88,2.11c8.58,7.19,22,10.12,27.37,11.06l.11,0,.55.09.39.07.71.1.28,0,.7.09,1,.12c5.39.57,18.74,1.4,28.9-2.93-.08-.75-.16-1.51-.25-2.27C139.25,108.82,124.64,107.52,120.25,107Z"/>
    </g>
    <ellipse class="cls-6" cx="114.82" cy="55.47" rx="10.25" ry="15.83"/>
    <path class="cls-7" d="M143.15,76.65l-4.4,6.25c1.4,3.27,10.06,11.68,10.06,11.68,1.29.41,9-2.69,8.77-2.78C148.9,88.24,143.15,76.66,143.15,76.65Z"/>
    <path class="cls-7" d="M99.53,70.12l2.57,4.56C94.84,81,88,81.73,88,81.73c-1.21-.12-6.45-5.45-6.25-5.44C90.23,76.46,99.53,70.12,99.53,70.12Z"/>
    <path class="cls-7" d="M86.14,118.23c-.84,2-9.3,10.94-9.3,11.92s9,4.91,10,5.83-.5,1.11-.5,1.11a96.47,96.47,0,0,0-9.07-4.36c-5.26-2.22-5.16-4.37-5.16-4.37,4-.41,12.92-10.91,12.92-10.91Z"/>
    <path class="cls-7" d="M148.19,126.51c.21,2.13,6,13.91,6,13.91-.94.52-12.77,2.6-13.66,2.69s-1-2.31-1.52-3.05a.87.87,0,0,0-1.57.36,14,14,0,0,0,1.41,4.33c.62,1.25,9.76-.77,11.15-1.37s5.63-.87,7.26-1.58a2.22,2.22,0,0,0,1.41-2.26c-4.77-2.13-9.13-13.78-9.13-13.78Z"/>
    <path class="cls-7" d="M131.13,138.42c-1.67.4-.3,6.58-1.28,9s-.94.15-7.25,3.47-14,.25-15.12-.12-6.44-2.19-7.2-2.3-2.83.58,1.52,2.12,5.2,3.07,10.74,4.14S126,152.55,127.37,152s5.81-.79,6.81-2.89-1.24-7.08-1.24-7.08C132.32,140.42,132.81,138,131.13,138.42Z"/>
    <path d="M114.9,57c-.2,1.62-.35,3.19-.47,4.7-6.65-1.27-11.5-3.4-11.6-2.65s4.79,2.88,11.5,4.11c-.1,1.54-.16,3-.19,4.35-6-1.14-10.34-3.14-10.42-2.52s4.21,2.87,10.39,4c0,1.63,0,3.08.09,4.27-4.09-.76-7.07-2.08-7.13-1.61s3,2.05,7.21,2.82c.13,1.57.31,2.46.47,2.49s.27-.84.37-2.34l.59.08c4.91.65,9.07-.16,9.14-.7s-4.07.17-9-.48l-.66-.1c.07-1.17.15-2.6.26-4.22l.57.09c7.21,1,13.69-.15,13.78-.85s-6,.43-13.2-.52l-1.06-.16c.1-1.34.21-2.8.34-4.33l1.29.19c8.11,1.07,14.92.19,15-.68s-6.74.31-14.85-.76l-1.34-.2c.14-1.52.32-3.11.52-4.74l1.44.19c8.41,1.11,15.3,1.54,15.43.53s-6.81-.94-15.23-2l-1.45-.2c.21-1.52.44-3,.67-4.41l1.37.18c8.11,1.07,14.64,2.39,14.75,1.53s-6.42-2.1-14.53-3.17l-1.32-.17c.26-1.53.53-3,.79-4.31l1.1.14c7.21.95,12.93,2.57,13,1.86S127,44.92,119.77,44l-1-.13c.31-1.55.59-2.92.83-4.1l.72.1c4.92.65,8.88,1.34,8.95.8s-3.85-1.51-8.76-2.16l-.63-.07c.37-1.85.55-2.94.36-3s-.67,1-1.29,2.86c-4.18-.47-7.4-.5-7.46,0s3,.8,7,1.31c-.37,1.17-.75,2.54-1.15,4.09-6.08-.63-10.77-.44-10.85.18S111,44.5,117,45.14c-.31,1.33-.63,2.76-.92,4.28-6.73-.81-11.84-1.1-11.94-.34s4.95,1.16,11.64,2c-.26,1.4-.49,2.86-.69,4.36-6.91-1.09-12-2.41-12.14-1.53S108,55.93,114.9,57Z"/>
    <g>
      <path class="cls-3" d="M39.43,12.28a2.09,2.09,0,0,1,2.44-1.68L152.56,29.46c1.14.21,2.33,2.82,2.12,4h0c-.21,1.14-2.27,3.3-3.42,3.1L41.11,14.73a2.09,2.09,0,0,1-1.68-2.45Z"/>
      <path class="cls-2" d="M83.56,24.5a2.46,2.46,0,0,0,1.18-.09,2.53,2.53,0,0,0,1.08.48,2.43,2.43,0,0,0,2.83-2l.48-2.79a2.43,2.43,0,0,0-2-2.83,2.46,2.46,0,0,0-1.18.1,2.32,2.32,0,0,0-1.08-.49,2.44,2.44,0,0,0-2.83,2l-.49,2.79A2.44,2.44,0,0,0,83.56,24.5Z"/>
      <path class="cls-2" d="M35.49,11.6a2.52,2.52,0,0,1,2.93-2.06l2.89.5A2.54,2.54,0,0,1,43.37,13h0A2.53,2.53,0,0,1,40.44,15l-2.88-.5a2.54,2.54,0,0,1-2.07-2.93Z"/>
    </g>
    <path class="cls-1" d="M116.43,97.64a8.71,8.71,0,0,1-12-2.78l-1.53-2.47a8.7,8.7,0,0,1,2.78-12l29.67-18.48a8.7,8.7,0,0,1,12,2.78l1.53,2.47a8.69,8.69,0,0,1-2.78,12Z"/>
    <path class="cls-2" d="M141,73.88h0l-.34-.13-.34-.13h0c-2.08-.85-8.4-3.88-10.7-10.05.08-.08,7.76-14.31,14.16-23.25,0,0,1.5-2.6,9.4.27h0l.22.08.23.09h0c7.81,3.08,7.22,6,7.22,6-1.12,11.38-5.17,26.66-5.17,26.66C149.87,76.54,143.13,74.62,141,73.88Z"/>
    <path class="cls-2" d="M144.52,34.57c-2.08,5.51,2.21,8.6,7.72,10.69s10.16,2.38,12.25-3.13a10.68,10.68,0,1,0-20-7.56Z"/>
    <path class="cls-7" d="M160,34.32c2.87,4.24-1,6.82-2.41,7.46s-4.58.52-5.57,1.6,2.32,1.46,2.32,1.46L147.07,74a9.26,9.26,0,0,0,4.63-.66l5.87-28.56s2.94-.09,4.89-3.88-1-7.7-1-7.7C160.58,31.8,158.45,32.1,160,34.32Z"/>
    <path class="cls-4" d="M146.5,145.27s4.84,6.25,6.14,7.11,4.41-.43,4.84-1.29-6.46-6.68-6.46-6.68Z"/>
    <path class="cls-4" d="M152.42,144.19s6.89,5.39,7.32,6.79-.64,20.78-.64,21.75.32,1.62,1.29-.11,1.29-20.46,1.08-22-6.79-6.79-6.79-6.79Z"/>
    <path class="cls-4" d="M97.54,150.66c-.16-.6-34.83,26-35.14,26.81s-1.3,1.83,2.15,1.18,35.68-26.92,35.68-26.92Z"/>
    <path class="cls-4" d="M94.59,149.51s-24,17-24.76,17.62.1,1.19.64,1.62,25.27-18.63,25.27-18.63Z"/>
    <g>
      <path class="cls-2" d="M113.05,105.58l1.54,4,2.71-3.09,4.13.43,4,.35-13.33,15.61-6.75-19.43,4,1.18Z"/>
      <path class="cls-2" d="M121.43,107l-8.05,9-4-11.33-4-1.18,6.75,19.43,13.33-15.61Z"/>
      <path class="cls-8" d="M117.3,106.53l-2.71,3.09-1.54-4-3.72-.91,4,11.38,8.06-9.09Z"/>
    </g>
  </g>
</svg>
