<svg xmlns="http://www.w3.org/2000/svg" width="18.026" height="17.994" viewBox="0 0 18.026 17.994"><defs><style>.a{fill:#fff;}</style></defs><g transform="translate(-1360.273 -901)"><rect class="a" width="3.736" height="12.019" transform="translate(1360.57 906.975)"/><path class="a" d="M2.167,0A2.166,2.166,0,1,0,4.332,2.165,2.166,2.166,0,0,0,2.167,0Z" transform="translate(1360.273 901)"/><path class="a" d="M43.628,32.45a3.926,3.926,0,0,0-3.535,1.941h-.049V32.749H36.46V44.768h3.732V38.822c0-1.567.3-3.087,2.242-3.087,1.915,0,1.941,1.793,1.941,3.187v5.845h3.732V38.173C48.109,34.939,47.411,32.45,43.628,32.45Z" transform="translate(1330.19 874.226)"/></g></svg>