<svg xmlns="http://www.w3.org/2000/svg" width="20" height="20.003" viewBox="0 0 20 20.003"><path d="M5-8.75A1.249,1.249,0,0,0,3.75-7.5,1.249,1.249,0,0,0,5-6.25,1.249,1.249,0,0,0,6.25-7.5,1.251,1.251,0,0,0,5-8.75Zm11.352-6.48A10.062,10.062,0,0,0,7.992-17.3,9.943,9.943,0,0,0,.2-9.543,10.047,10.047,0,0,0,2.848-.535,9.37,9.37,0,0,0,9.406,2.5a6.331,6.331,0,0,0,1.02-.078A2.953,2.953,0,0,0,12.617.82a3.31,3.31,0,0,0,.008-2.992,1.5,1.5,0,0,1,.07-1.484,1.425,1.425,0,0,1,1.25-.719h2.82A3.172,3.172,0,0,0,20-7.551,9.942,9.942,0,0,0,16.352-15.23Zm.414,8.98h-2.82a3.322,3.322,0,0,0-2.852,1.613,3.382,3.382,0,0,0-.141,3.316,1.432,1.432,0,0,1-.008,1.285,1.11,1.11,0,0,1-.8.609A7.194,7.194,0,0,1,4.2-1.832,8.187,8.187,0,0,1,2.039-9.176a8.054,8.054,0,0,1,6.312-6.289,8.191,8.191,0,0,1,6.809,1.684,8.072,8.072,0,0,1,2.965,6.234A1.316,1.316,0,0,1,16.766-6.25ZM6.25-12.5A1.249,1.249,0,0,0,5-11.25,1.249,1.249,0,0,0,6.25-10,1.249,1.249,0,0,0,7.5-11.25,1.251,1.251,0,0,0,6.25-12.5ZM10-13.754A1.249,1.249,0,0,0,8.75-12.5,1.249,1.249,0,0,0,10-11.254a1.249,1.249,0,0,0,1.25-1.25A1.251,1.251,0,0,0,10-13.754ZM13.75-12.5a1.249,1.249,0,0,0-1.25,1.25A1.249,1.249,0,0,0,13.75-10,1.249,1.249,0,0,0,15-11.25,1.249,1.249,0,0,0,13.75-12.5Z" transform="translate(0 17.499)"/></svg>