<svg xmlns="http://www.w3.org/2000/svg" width="17.5" height="17.5" viewBox="0 0 17.5 17.5"><path d="M3.125-3.125a1.251,1.251,0,0,1,1.25,1.25,1.251,1.251,0,0,1-1.25,1.25,1.251,1.251,0,0,1-1.25-1.25A1.251,1.251,0,0,1,3.125-3.125ZM3.125-5A3.125,3.125,0,0,0,0-1.875,3.125,3.125,0,0,0,3.125,1.25,3.125,3.125,0,0,0,6.25-1.875,3.125,3.125,0,0,0,3.125-5ZM17.5.766A17.506,17.506,0,0,0,.484-16.25.47.47,0,0,0,0-15.781v.938a.468.468,0,0,0,.454.468A15.629,15.629,0,0,1,15.624.8a.468.468,0,0,0,.468.454h.938A.47.47,0,0,0,17.5.766Zm-5.322,0A12.181,12.181,0,0,0,.486-10.928.469.469,0,0,0,0-10.459v.938a.469.469,0,0,0,.449.468A10.307,10.307,0,0,1,10.3.8a.469.469,0,0,0,.468.449h.938A.469.469,0,0,0,12.178.764Z" transform="translate(0 16.25)"/></svg>