<svg xmlns="http://www.w3.org/2000/svg" width="23.056" height="18.737" viewBox="0 0 23.056 18.737"><defs><style>.a{fill:#fff;}</style></defs><path class="a" d="M23.036,2.218a9.466,9.466,0,0,1-2.717.745A4.744,4.744,0,0,0,22.4.346a9.477,9.477,0,0,1-3,1.148,4.734,4.734,0,0,0-8.058,4.313A13.427,13.427,0,0,1,1.587.866,4.734,4.734,0,0,0,3.05,7.18,4.715,4.715,0,0,1,.907,6.589v.06A4.732,4.732,0,0,0,4.7,11.286a4.728,4.728,0,0,1-2.136.081,4.735,4.735,0,0,0,4.418,3.285,9.487,9.487,0,0,1-5.874,2.025A9.6,9.6,0,0,1-.02,16.611a13.391,13.391,0,0,0,7.25,2.126A13.366,13.366,0,0,0,20.688,5.279q0-.308-.014-.612A9.6,9.6,0,0,0,23.036,2.218Z" transform="translate(0.02)"/></svg>