<svg xmlns="http://www.w3.org/2000/svg" width="23.089" height="15.874" viewBox="0 0 23.089 15.874"><defs><style>.a{fill:#fff;}</style></defs><path class="a" d="M22.108,81.53c-.626-1.114-1.306-1.319-2.69-1.4C18.036,80.039,14.559,80,11.548,80s-6.5.039-7.876.131-2.062.283-2.694,1.4S0,84.559,0,87.933v.012c0,3.36.332,5.29.977,6.391s1.312,1.316,2.693,1.41,4.86.128,7.878.128,6.488-.048,7.872-.127,2.064-.3,2.69-1.41c.651-1.1.98-3.032.98-6.391v-.012C23.089,84.559,22.76,82.642,22.108,81.53ZM8.659,92.266V83.608l7.215,4.329Z" transform="translate(0 -80)"/></svg>