<svg xmlns="http://www.w3.org/2000/svg" xmlns:xlink="http://www.w3.org/1999/xlink" width="1920" height="207.001" viewBox="0 0 1920 207.001"><defs><style>.a{fill:#5392e4;}.b{clip-path:url(#a);}.c{opacity:0.598;fill:url(#b);}.d{opacity:0.154;fill:url(#c);}.e,.i{fill:#14254c;}.f,.h{fill:#67c08b;}.g{fill:#0c1b38;}.h,.i,.j,.k,.l{fill-rule:evenodd;}.j{fill:#31475c;}.k,.p{fill:#fab16a;}.l{fill:#dc7f1b;}.m{fill:#fff;}.n{fill:#f27043;}.o{fill:#4f5d6c;}</style><clipPath id="a"><path class="a" d="M0-.193H1920v96H0Z" transform="translate(0 0.193)"/></clipPath><linearGradient id="b" x1="0.512" y1="0.225" x2="0.483" y2="1.824" gradientUnits="objectBoundingBox"><stop offset="0" stop-color="#68a1ef" stop-opacity="0.306"/><stop offset="1" stop-color="#1b74c1" stop-opacity="0.698"/></linearGradient><linearGradient id="c" x1="0.581" y1="0.251" x2="0.482" y2="1.943" gradientUnits="objectBoundingBox"><stop offset="0" stop-color="#84afff"/><stop offset="1" stop-color="#4494d0" stop-opacity="0.698"/></linearGradient></defs><g transform="translate(0 -7080.999)"><g transform="translate(0 7192)"><g class="b"><path class="c" d="M-7416.565-8790.02c-18.376.007-21.208,2.684-70.16-9.886S-7795-8878.332-7795-8878.332v226.054h2041v-247.143s-110.1,2.972-262.556,45.553-264.5,92.818-347.253,124.773-90.889,16.023-142.46,5.8-391.943-49.988-424.336-56.177-45.882-10.511-78.664-10.545S-7398.188-8790.025-7416.565-8790.02Z" transform="translate(7674.001 8748.278)"/><path class="d" d="M-7792-8570.421s241.322-179.712,282-212,69.826-29.293,96-30,419,0,419,0,32.148-2.659,70,10,346,103,346,103,37.567,11.724,76-9,158.329-89.009,197-108,54.464-14.72,121-8,313,28,313,28v246H-7792Z" transform="translate(7792 8780.421)"/></g></g><g transform="translate(1126.205 7080.999)"><g transform="translate(20.691 0)"><path class="e" d="M247.085,397.792a9.411,9.411,0,0,1-7.631-3.9,63,63,0,0,1-11.775-30.647,55.728,55.728,0,0,1,5.908-31.467c9.231-17.6,25.641-24.821,32.247-27.118a9.393,9.393,0,0,1,6.113,17.764c-4.513,1.559-15.672,6.441-21.744,18.052-6.687,12.759-4.923,29.375,4.472,42.38a9.428,9.428,0,0,1-2.092,13.128A9.275,9.275,0,0,1,247.085,397.792Z" transform="translate(-213.77 -237.871)"/><path d="M194.2,530.941l1.559-20.021a1.64,1.64,0,0,1,.78-1.272l47.385-29.5a1.814,1.814,0,0,1,.656-.246l12.308-1.723a1.634,1.634,0,0,1,1.846,1.559l.287,13.539a.8.8,0,0,1-.041.328l-7.467,38.36a1.624,1.624,0,0,1-1.6,1.313l-54.073-.656A1.562,1.562,0,0,1,194.2,530.941Z" transform="translate(-194.196 -357.118)"/><path d="M342.191,529.3l3.323-52.965a1.6,1.6,0,0,1,1.518-1.518l16.205-1.231a1.486,1.486,0,0,1,1.272.492L397.125,506.7a1.576,1.576,0,0,1,.451.944l2.872,21.252a1.62,1.62,0,0,1-1.6,1.846l-55.016.328A1.648,1.648,0,0,1,342.191,529.3Z" transform="translate(-281.471 -354.415)"/><path class="f" d="M336.883,372.443l-36.267,4.349-7.18-54.975A25.427,25.427,0,0,1,318.544,292.4h0a25.431,25.431,0,0,1,25.108,29.416Z" transform="translate(-252.531 -232.898)"/><path class="e" d="M301.9,453.472,344.444,449l-1.764,15.057a19.695,19.695,0,0,1-39.016.78Z" transform="translate(-255.758 -330.139)"/><g transform="translate(27.679 125.212)"><path class="e" d="M402,489.567l-14.359,12.964a1.353,1.353,0,0,1-2.051-.246l-20.1-30.031a1.378,1.378,0,0,1,.738-2.051l10.38-3.282a1.392,1.392,0,0,1,1.272.246l24.082,20.349A1.37,1.37,0,0,1,402,489.567Z" transform="translate(-316.892 -466.865)"/><path class="e" d="M258.373,501.658l-10.421-7.139a1.362,1.362,0,0,1-.041-2.215L273.06,473.6a1.31,1.31,0,0,1,1.436-.123l8.615,4.554a1.373,1.373,0,0,1,.287,2.215l-23.344,21.293A1.416,1.416,0,0,1,258.373,501.658Z" transform="translate(-247.362 -470.668)"/><path class="e" d="M287.9,507.622l16.493-26.872,20.964-1.354a1.341,1.341,0,0,1,1.395,1.026l7.836,33.149Z" transform="translate(-271.269 -474.254)"/></g><path class="g" d="M397.2,383.364a9.243,9.243,0,0,1-6.359-2.5,9.4,9.4,0,0,1-.533-13.293c3.2-3.487,10.708-13.005,10.667-26.093a37.192,37.192,0,0,0-6.277-20.349,45.064,45.064,0,0,0-17.313-15.3,9.4,9.4,0,0,1,8.493-16.78,63.882,63.882,0,0,1,24.534,21.744,56.438,56.438,0,0,1,9.354,30.606c.041,19.734-10.954,33.724-15.672,38.852A9.165,9.165,0,0,1,397.2,383.364Z" transform="translate(-299.19 -228.366)"/><path d="M293.485,272.544,279.7,286.37l11.816,4.718,14.605-14.975V257.2H293.485Z" transform="translate(-244.621 -210.184)"/><g transform="translate(57.151 41.847)"><path d="M333.5,265.113l18.913,16.575,22.852-9.067-12.841-10.3a7.8,7.8,0,0,1-2.913-6.072V244.6H333.5Z" transform="translate(-333.5 -244.6)"/></g><g transform="translate(48.618 0)"><path class="h" d="M381.7,163.852c6.933-3.569,10.544-7.754,12.554-11,2.339-3.774,3.118-7.262,6.687-8.739,2.215-.944,3.61-.328,8.123-.369a50.434,50.434,0,0,0,9.764-1.149c.205,1.641.41,3.241.656,4.882a23.414,23.414,0,0,1-8.9,1.149c-3.9-.246-5.416-1.354-7.713-.533-3.118,1.108-3.815,4.39-5.662,7.221C395.115,158.477,390.931,162.088,381.7,163.852Z" transform="translate(-353.392 -142.6)"/><path class="h" d="M380.6,176.58c7.795-.287,12.841-2.5,16.041-4.636,3.487-2.256,5.5-4.513,9.805-5.087,3.159-.41,4.554.533,8.369.205a21.864,21.864,0,0,0,8.246-2.462c.328,1.764.7,3.528,1.026,5.292a22.968,22.968,0,0,1-7.836,1.805c-4.431.246-6.154-.985-9.764-.41-3.815.615-5.415,2.38-8.205,4.1C395.041,177.441,389.708,178.918,380.6,176.58Z" transform="translate(-352.743 -155.574)"/><path class="i" d="M339.572,174.8h-7.1A19.759,19.759,0,0,0,312.7,194.575v15.508a12.554,12.554,0,0,0,12.554,12.554h9.682a12.554,12.554,0,0,0,12.554-12.554V182.677a7.967,7.967,0,0,0-7.918-7.877" transform="translate(-312.7 -161.589)"/><path class="j" d="M347.944,217.272A15.672,15.672,0,1,1,332.272,201.6a15.644,15.644,0,0,1,15.672,15.672" transform="translate(-315 -177.394)"/><path class="k" d="M348.959,209.641v-.164a15.624,15.624,0,0,0-27.159.041v15.426a15.624,15.624,0,0,0,27.159.041Z" transform="translate(-318.067 -177.394)"/><path class="l" d="M339.1,231.267h7.1V219Z" transform="translate(-328.269 -187.656)"/><g transform="translate(1.641 28.636)"><path class="e" d="M316.7,213.918h32.493V212.4H316.7Z" transform="translate(-316.7 -212.4)"/><path class="e" d="M316.7,231.259h32.493V229.7H316.7Z" transform="translate(-316.7 -222.602)"/><path class="e" d="M316.7,265.782h30.523V264.1H316.7Z" transform="translate(-316.7 -242.889)"/><path class="e" d="M316.7,248.382h32.493V246.7H316.7Z" transform="translate(-316.7 -232.628)"/></g><g transform="translate(7.385 32.042)"><path class="m" d="M372.649,223.079h-1.6a1.174,1.174,0,0,1-1.149-1.149v-.082a1.174,1.174,0,0,1,1.149-1.149h1.6a1.174,1.174,0,0,1,1.149,1.149v.082A1.147,1.147,0,0,1,372.649,223.079Z" transform="translate(-353.818 -220.7)"/><path class="m" d="M333.449,223.079h-1.6a1.174,1.174,0,0,1-1.149-1.149v-.082a1.174,1.174,0,0,1,1.149-1.149h1.6a1.174,1.174,0,0,1,1.149,1.149v.082A1.147,1.147,0,0,1,333.449,223.079Z" transform="translate(-330.7 -220.7)"/><ellipse cx="1.19" cy="1.19" rx="1.19" ry="1.19" transform="translate(16.575 0.985)"/><ellipse cx="1.19" cy="1.19" rx="1.19" ry="1.19" transform="translate(0.779 0.985)"/></g></g><g transform="translate(17.889 116.673)"><path class="n" d="M278.949,497.613,255.687,467.5,237.8,486.085l33.313,21.539Z" transform="translate(-237.8 -467.5)"/><path class="n" d="M313.9,533.083l3.815-5.539a6.478,6.478,0,0,1,6.318-2.749l8,1.149a1.389,1.389,0,0,1,.9,2.215l-.574.779a1.38,1.38,0,0,1-.821.533Z" transform="translate(-282.679 -501.247)"/><path class="n" d="M336.869,546.574l1.436-8.657a4.017,4.017,0,0,0-4.267-4.636l-14.687,1.107-.451,11.734,12.923,3.651A3.984,3.984,0,0,0,336.869,546.574Z" transform="translate(-285.628 -506.286)"/></g><g transform="translate(67.206 123.476)"><path class="f" d="M376.6,483.255,399.862,453.1l17.928,18.626-33.313,21.5Z" transform="translate(-365.061 -453.1)"/><path class="f" d="M373.122,518.784l-3.815-5.539a6.479,6.479,0,0,0-6.318-2.749l-8,1.149a1.389,1.389,0,0,0-.9,2.215l.574.779a1.38,1.38,0,0,0,.82.533Z" transform="translate(-351.613 -486.906)"/><path class="f" d="M349.962,532.274l-1.436-8.656a4.017,4.017,0,0,1,4.267-4.636l14.687,1.108.451,11.734-12.923,3.651A3.993,3.993,0,0,1,349.962,532.274Z" transform="translate(-348.474 -491.945)"/></g></g><g transform="translate(18.185 116.468)"><g transform="translate(0 0)"><rect class="o" width="85.924" height="62.221"/><rect width="85.924" height="5.57" transform="translate(0 60.751)"/><path class="m" d="M1481.548,2043.966l-3.406-4.519-.493,4.125-4.518,3.407,4.126.492,3.406,4.519.492-4.126,4.519-3.406Zm-2.237,2.508a.761.761,0,1,1,.847-.666A.762.762,0,0,1,1479.311,2046.475Z" transform="translate(-1436.44 -2014.707)"/></g></g><g transform="translate(0 161.576)"><path class="p" d="M231.928,634.218,205.384,632.7l-70.524,1.354-51.037,1.108a1.769,1.769,0,0,0-1.723,1.764h0a1.762,1.762,0,0,0,1.682,1.764l51.037,1.518,70.524,1.6,26.544-1.436Z" transform="translate(-81.977 -624.495)"/><path d="M200.5,640.762v-4.431a1.244,1.244,0,0,1,1.272-1.231h2.913a1.244,1.244,0,0,1,1.231,1.272V640.8a1.244,1.244,0,0,1-1.272,1.231h-2.913A1.27,1.27,0,0,1,200.5,640.762Z" transform="translate(-151.802 -625.91)"/><path d="M81.8,640.928v-2.462a1.086,1.086,0,0,1,1.067-1.067h2.954a1.086,1.086,0,0,1,1.067,1.067v2.462a1.086,1.086,0,0,1-1.067,1.067H82.867A1.059,1.059,0,0,1,81.8,640.928Z" transform="translate(-81.8 -627.267)"/><path d="M496.665,641.875V631.7L446.9,633.628v6.154Z" transform="translate(-297.113 -623.905)"/><path d="M438.6,637.6l.041-23.877a1.016,1.016,0,0,1,1.026-1.026h2.339a1.016,1.016,0,0,1,1.026,1.026L442.99,637.6a1.016,1.016,0,0,1-1.026,1.026h-2.338A1.016,1.016,0,0,1,438.6,637.6Z" transform="translate(-292.218 -612.7)"/></g></g></g></svg>
