<svg width="1920" height="329" viewBox="0 0 1920 329" fill="none" xmlns="http://www.w3.org/2000/svg">
<path opacity="0.3" d="M1920 1.58026L1755.38 62.5198C1740.26 66.5338 1723.14 68.6453 1705.73 68.6453H1309.2C1306.4 68.6453 1303.6 68.5909 1300.82 68.4821L966.472 18.6045C945.99 17.8051 925.473 19.955 907.717 24.7617L501.275 134.787C465.239 144.541 419.945 142.888 387.637 130.638L0 0V204.11C0 204.11 301.937 298.092 346.612 310.722C391.287 323.352 429.254 339.181 501.275 317.708C573.296 296.235 864.307 217.429 897.892 209.434C931.476 201.44 939.855 197.731 986.091 204.11C1022.57 209.142 1192.35 234.534 1259.44 243.345C1276.99 245.651 1309.2 247.1 1309.2 247.1C1309.2 247.1 1672.29 246.978 1696.63 247.1C1720.97 247.222 1741.87 238.817 1741.87 238.817L1920 175.33V1.58026Z" fill="url(#paint0_linear_29_20812)"/>
<defs>
<linearGradient id="paint0_linear_29_20812" x1="1476.48" y1="106.365" x2="1476.09" y2="-95.5567" gradientUnits="userSpaceOnUse">
<stop stop-color="#446ECE" stop-opacity="0.451"/>
<stop offset="1" stop-color="#282F89" stop-opacity="0"/>
</linearGradient>
</defs>
</svg>
