<svg xmlns="http://www.w3.org/2000/svg" width="1920" height="328.286" viewBox="0 0 1920 328.286"><path d="M1920-1.824l-164.624,60.94a196.244,196.244,0,0,1-49.65,6.125H1309.2q-4.195,0-8.379-.163L966.472,15.2c-20.483-.8-41,1.351-58.755,6.157L501.275,131.382c-36.035,9.755-81.33,8.1-113.637-4.148L0-3.4v204.11s301.937,93.982,346.612,106.612,82.642,28.46,154.663,6.987S864.307,214.025,897.892,206.03s41.963-11.7,88.2-5.325c36.48,5.033,206.264,30.425,273.344,39.235,17.559,2.306,49.761,3.755,49.761,3.755s363.1-.122,387.435,0,45.239-8.283,45.239-8.283L1920,171.925Z" transform="translate(0 3.404)" fill="#e5f5f9" opacity="0.75"/></svg>