<svg width="99" height="93" viewBox="0 0 99 93" fill="none" xmlns="http://www.w3.org/2000/svg">
<g clip-path="url(#clip0_8004_132026)">
<path d="M93.1082 46.2963C93.1082 37.1398 90.393 28.1889 85.3059 20.5755C80.2188 12.9621 72.9883 7.02817 64.5288 3.52412C56.0692 0.0200606 46.7606 -0.896762 37.78 0.889591C28.7994 2.67594 20.5502 7.08524 14.0755 13.5599C7.60087 20.0345 3.19157 28.2838 1.40521 37.2644C-0.381138 46.245 0.535689 55.5536 4.03975 64.0131C7.5438 72.4727 13.4777 79.7032 21.0911 84.7903C28.7045 89.8774 37.6554 92.5926 46.8119 92.5926C59.0905 92.5926 70.8661 87.715 79.5484 79.0327C88.2306 70.3505 93.1082 58.5749 93.1082 46.2963Z" fill="#E3F6FF"/>
<path fill-rule="evenodd" clip-rule="evenodd" d="M52.5234 23.0855C59.9134 19.2769 63.7568 14.8238 65.9133 11.3396C68.4086 7.30689 69.2408 3.60784 73.0545 2.00057C75.4165 1.00535 76.9108 1.6599 81.707 1.58885C85.2193 1.53644 88.7169 1.12215 92.1443 0.352539L92.8309 5.5715C89.7771 6.57205 86.5627 6.9912 83.3545 6.80723C79.193 6.54984 77.5764 5.37816 75.1149 6.25808C71.7792 7.45014 71.0431 10.9256 69.0719 13.9491C66.8439 17.3663 62.3749 21.2243 52.5234 23.0855Z" fill="#67C08B"/>
<path fill-rule="evenodd" clip-rule="evenodd" d="M52.0781 22.5371C60.3864 22.2389 65.7632 19.8461 69.1955 17.6122C72.919 15.1902 75.0562 12.7788 79.6346 12.2046C82.9854 11.7824 84.4774 12.7869 88.5724 12.42C91.6437 12.1287 94.629 11.2424 97.3617 9.81055L98.4606 15.4412C95.7979 16.5541 92.9646 17.204 90.083 17.363C85.3626 17.6087 83.5078 16.3211 79.6847 16.9326C75.6083 17.5843 73.9195 19.4804 70.942 21.3177C67.4706 23.4607 61.784 25.0446 52.0781 22.5359" fill="#67C08B"/>
<mask id="mask0_8004_132026" style="mask-type:luminance" maskUnits="userSpaceOnUse" x="0" y="0" width="94" height="93">
<path d="M0.515625 46.2963C0.515625 55.4528 3.23087 64.4037 8.31797 72.0171C13.4051 79.6305 20.6356 85.5644 29.0951 89.0685C37.5547 92.5726 46.8633 93.4894 55.8439 91.703C64.8245 89.9167 73.0737 85.5074 79.5483 79.0327C86.023 72.5581 90.4323 64.3089 92.2187 55.3283C94.005 46.3477 93.0882 37.039 89.5841 28.5795C86.0801 20.1199 80.1462 12.8894 72.5328 7.80233C64.9194 2.71523 55.9685 0 46.8119 0C34.5334 0 22.7577 4.87763 14.0755 13.5599C5.39327 22.2421 0.515625 34.0178 0.515625 46.2963Z" fill="white"/>
</mask>
<g mask="url(#mask0_8004_132026)">
<path d="M33.2959 83.4834C24.5146 88.4834 16.626 94.9089 9.95267 102.497C-0.528949 114.545 -7.72667 129.093 -10.9453 144.734" stroke="#14254C" stroke-width="20.1665" stroke-miterlimit="10" stroke-linecap="round"/>
<path d="M26.625 69.2462L11.9062 83.9649L24.5221 89.0115L40.0823 73.0309V52.8428H26.625V69.2462Z" fill="black"/>
<path d="M64.4742 153.674L25.7851 158.3L18.1476 99.6632C17.5333 95.7923 17.7655 91.8343 18.8285 88.0619C19.8914 84.2895 21.7597 80.7925 24.3045 77.8118C26.8494 74.8312 30.0104 72.4378 33.5695 70.7967C37.1286 69.1555 41.0013 68.3057 44.9206 68.3057C48.8399 68.3057 52.7125 69.1555 56.2717 70.7967C59.8308 72.4378 62.9917 74.8312 65.5366 77.8118C68.0815 80.7925 69.9498 84.2895 71.0127 88.0619C72.0756 91.8343 72.3079 95.7923 71.6935 99.6632L64.4742 153.674Z" fill="#67C08B"/>
<path d="M63.9375 81.0781C66.3623 83.8914 78.1501 98.1373 75.6094 116.469C72.7646 136.99 53.1117 154.38 27.5078 156.394" stroke="#0C1B38" stroke-width="20.1665" stroke-linecap="round" stroke-linejoin="round"/>
<path d="M35.4609 69.2412L55.6467 86.9037L80.0376 77.2315L66.3344 66.2683C65.3615 65.4903 64.5761 64.5033 64.0364 63.3806C63.4967 62.2578 63.2165 61.028 63.2166 59.7822V47.373H35.4609V69.2412Z" fill="black"/>
<path fill-rule="evenodd" clip-rule="evenodd" d="M55.0269 16.8154H47.4361C41.8358 16.8154 36.465 19.0401 32.505 23.0001C28.545 26.9601 26.3203 32.331 26.3203 37.9312V54.4866C26.3203 58.0389 27.7314 61.4457 30.2433 63.9576C32.7551 66.4694 36.1619 67.8805 39.7142 67.8805H50.0531C53.6054 67.8805 57.0122 66.4694 59.524 63.9576C62.0359 61.4457 63.447 58.0389 63.447 54.4866V25.2344C63.4381 23.0043 62.5483 20.868 60.9714 19.2911C59.3944 17.7142 57.2582 16.8243 55.0281 16.8154" fill="#14254C"/>
<path fill-rule="evenodd" clip-rule="evenodd" d="M61.5001 45.2462C61.5001 48.549 60.5207 51.7776 58.6858 54.5238C56.8508 57.27 54.2428 59.4104 51.1914 60.6743C48.14 61.9382 44.7823 62.2689 41.543 61.6246C38.3036 60.9802 35.3281 59.3898 32.9927 57.0544C30.6572 54.7189 29.0668 51.7434 28.4224 48.5041C27.7781 45.2647 28.1088 41.907 29.3727 38.8556C30.6366 35.8042 32.777 33.1962 35.5232 31.3612C38.2694 29.5263 41.498 28.5469 44.8009 28.5469C46.995 28.5428 49.1683 28.972 51.1962 29.8098C53.2241 30.6476 55.0666 31.8775 56.6181 33.4289C58.1696 34.9804 59.3995 36.8229 60.2373 38.8508C61.075 40.8787 61.5042 43.0521 61.5001 45.2462Z" fill="#31475C"/>
<path fill-rule="evenodd" clip-rule="evenodd" d="M59.2951 37.1029C59.2951 37.0447 59.2876 36.9917 59.287 36.9352C57.8254 34.3807 55.7134 32.2589 53.1659 30.7853C50.6183 29.3118 47.7259 28.5391 44.7829 28.5459C41.8399 28.5527 38.9511 29.3388 36.4104 30.8241C33.8696 32.3093 31.7675 34.441 30.3177 37.0021C30.3177 37.0359 30.3125 37.0691 30.3125 37.1029V53.4825C31.7622 56.0462 33.8654 58.18 36.408 59.6666C38.9505 61.1532 41.8416 61.9395 44.7869 61.9455C47.7321 61.9514 50.6264 61.1767 53.1749 59.7003C55.7234 58.224 57.8351 56.0986 59.2951 53.5407V37.1029Z" fill="#E9AC6A"/>
<path d="M45.5469 54.7652C47.4957 54.7693 49.3953 54.1531 50.9708 53.006C52.2349 52.1528 53.2537 50.9835 53.9256 49.6144L52.489 48.8818C51.9082 49.9954 51.0716 50.9554 50.0478 51.6829C48.7551 52.6411 47.1793 53.1398 45.5708 53.0997L45.5469 54.7652Z" fill="white"/>
<path fill-rule="evenodd" clip-rule="evenodd" d="M37.9062 49.2492H45.4971V36.1377L37.9062 49.2492Z" fill="#DC7F1B"/>
<path d="M62.7428 33.2393H28.1016V34.8954H62.7428V33.2393Z" fill="#14254C"/>
<path d="M62.7428 40.8301H28.1016V42.4863H62.7428V40.8301Z" fill="#14254C"/>
<path d="M60.6726 55.874H28.1016V57.6682H60.6726V55.874Z" fill="#14254C"/>
<path d="M62.7428 48.2832H28.1016V50.0774H62.7428V48.2832Z" fill="#14254C"/>
<path d="M54.4195 39.0379C54.4195 38.6518 54.2661 38.2815 53.9931 38.0084C53.7201 37.7354 53.3498 37.582 52.9637 37.582C52.5776 37.582 52.2072 37.7354 51.9342 38.0084C51.6612 38.2815 51.5078 38.6518 51.5078 39.0379" fill="black"/>
<path d="M37.5289 39.0379C37.5289 38.6518 37.3755 38.2815 37.1025 38.0084C36.8295 37.7354 36.4592 37.582 36.073 37.582C35.6869 37.582 35.3166 37.7354 35.0436 38.0084C34.7706 38.2815 34.6172 38.6518 34.6172 39.0379" fill="black"/>
</g>
</g>
<defs>
<clipPath id="clip0_8004_132026">
<rect width="97.9478" height="92.5926" fill="white" transform="translate(0.515625)"/>
</clipPath>
</defs>
</svg>
