<svg width="174" height="160" viewBox="0 0 174 160" fill="none" xmlns="http://www.w3.org/2000/svg">
<path d="M18.0908 145.397L19.4522 127.981C19.4697 127.76 19.5387 127.546 19.6537 127.357C19.7688 127.167 19.9266 127.007 20.1146 126.89L61.2856 101.246C61.454 101.141 61.6427 101.073 61.8394 101.046L72.5491 99.5656C72.9206 99.5152 73.297 99.614 73.5958 99.8405C73.8946 100.067 74.0914 100.403 74.1432 100.774C74.1505 100.827 74.1548 100.881 74.1562 100.935L74.423 112.695C74.4255 112.797 74.417 112.898 74.3976 112.998L67.9033 146.359C67.8395 146.685 67.6637 146.977 67.4064 147.186C67.1492 147.395 66.8267 147.508 66.4952 147.504L19.4823 146.923C19.1074 146.918 18.75 146.764 18.4883 146.496C18.2266 146.227 18.0819 145.866 18.086 145.491C18.086 145.46 18.0861 145.429 18.0902 145.398" fill="black"/>
<path d="M70.8389 146.311L73.7354 100.267C73.7573 99.9266 73.9011 99.6057 74.1405 99.363C74.3798 99.1203 74.6986 98.9721 75.0384 98.9454L89.118 97.8626C89.3215 97.8469 89.526 97.8754 89.7174 97.9463C89.9088 98.0171 90.0825 98.1285 90.2268 98.2729L118.576 126.622C118.795 126.841 118.936 127.127 118.978 127.434L121.461 145.923C121.511 146.295 121.411 146.671 121.183 146.969C120.956 147.267 120.62 147.463 120.248 147.514C120.188 147.522 120.128 147.526 120.068 147.526L72.26 147.815C71.8848 147.817 71.5241 147.67 71.2572 147.406C70.9902 147.143 70.8387 146.784 70.8359 146.409C70.8359 146.376 70.8359 146.343 70.8389 146.311Z" fill="black"/>
<path d="M111.013 115.199L98.5385 126.46C98.3063 126.669 98.0006 126.777 97.6886 126.761C97.3765 126.745 97.0835 126.606 96.8737 126.375C96.8355 126.333 96.8006 126.288 96.7692 126.24L79.3071 100.131C79.2058 99.9785 79.1413 99.8048 79.1185 99.6234C79.0958 99.4419 79.1155 99.2577 79.1761 99.0851C79.2367 98.9126 79.3366 98.7566 79.4679 98.6292C79.5991 98.5019 79.7581 98.4067 79.9324 98.3513L88.9447 95.5104C89.1345 95.4507 89.3364 95.44 89.5315 95.4792C89.7266 95.5184 89.9085 95.6063 90.0605 95.7347L110.982 113.424C111.22 113.626 111.369 113.914 111.396 114.226C111.422 114.537 111.324 114.846 111.123 115.085C111.089 115.125 111.052 115.163 111.013 115.199Z" fill="#14254C"/>
<path d="M46.6194 122.404L37.5433 116.196C37.3887 116.089 37.2616 115.948 37.1726 115.783C37.0836 115.617 37.0352 115.434 37.0315 115.246C37.0277 115.058 37.0687 114.873 37.151 114.704C37.2334 114.536 37.3547 114.389 37.5049 114.277L59.3789 98.0103C59.5578 97.8781 59.7705 97.7992 59.9923 97.7826C60.2142 97.766 60.4363 97.8123 60.6329 97.9164L68.1167 101.872C68.393 102.019 68.5998 102.269 68.6919 102.567C68.784 102.866 68.7538 103.19 68.6079 103.466C68.5442 103.586 68.4605 103.694 68.3605 103.786L48.0824 122.303C47.8855 122.482 47.6339 122.59 47.3683 122.608C47.1028 122.626 46.8388 122.555 46.6194 122.404Z" fill="#14254C"/>
<path d="M51.5 124.496L65.8288 101.126L84.0471 99.9642C84.3249 99.9468 84.5999 100.028 84.8236 100.194C85.0473 100.359 85.2054 100.599 85.2698 100.869L92.0765 129.69L51.5 124.496Z" fill="#14254C"/>
<path d="M81.25 42.166C98.5538 47.5486 109.336 57.1867 111.124 73.6451C112.576 86.9992 103.755 97.021 101.162 99.7097" stroke="#14254C" stroke-width="12.0528" stroke-miterlimit="10" stroke-linecap="round"/>
<path d="M81.8828 105.752L96.5747 87.5996L111.984 103.563L87.5046 114.957L81.8828 105.752Z" fill="#67C08B"/>
<path d="M82.3923 108.238L79.7846 103.249C79.2223 102.286 78.4368 101.473 77.4943 100.877C76.5518 100.281 75.4799 99.92 74.3689 99.8248L66.6938 98.977C65.6901 98.8666 65.0141 99.6714 65.4605 100.442L65.8637 101.137C66.0222 101.398 66.262 101.599 66.5462 101.711L82.3923 108.238Z" fill="#67C08B"/>
<path d="M62.2195 110.314L62.3895 103.485C62.4397 101.47 64.7835 100.207 67.1634 100.91L80.6981 104.911L79.0922 113.834L66.3681 113.802C64.1105 113.796 62.1764 112.168 62.2195 110.314Z" fill="#67C08B"/>
<path d="M67.7844 44.6426C48.9509 48.4518 40.5591 63.2842 38.7165 74.8972C36.1731 90.9364 40.4911 107.145 47.0179 115.414" stroke="#14254C" stroke-width="12.0528" stroke-miterlimit="10" stroke-linecap="round"/>
<path d="M91.3967 103.319L59.8698 106.621L53.6453 64.7578C51.5163 53.006 61.8812 42.3701 75.4626 42.3701C89.044 42.3701 99.4089 53.006 97.2799 64.7578L91.3967 103.319Z" fill="#67C08B"/>
<path d="M56.4688 93.001L93.4527 89.1162L91.9235 102.212C91.4432 106.321 89.491 110.117 86.428 112.897C83.3649 115.677 79.3985 117.254 75.2626 117.335C71.1267 117.417 67.1013 115.998 63.9312 113.34C60.7611 110.682 58.6608 106.967 58.0191 102.88L56.4688 93.001Z" fill="#14254C"/>
<path d="M60.5563 38.7677L48.5625 50.7614L58.8424 54.8741L71.5216 41.8519V25.4023H60.5563V38.7677Z" fill="black"/>
<path d="M67.75 38.7622L84.1989 53.1559L104.075 45.2736L92.9077 36.3398C92.1153 35.7054 91.4758 34.901 91.0363 33.9861C90.5969 33.0711 90.3689 32.069 90.3691 31.054V20.9424H67.7512L67.75 38.7622Z" fill="black"/>
<path fill-rule="evenodd" clip-rule="evenodd" d="M84.6719 18.7303C90.6939 15.6261 93.823 11.9999 95.5829 9.15774C97.6163 5.87221 98.2951 2.85772 101.404 1.54823C103.328 0.737035 104.546 1.2701 108.455 1.21225C111.317 1.16964 114.167 0.832164 116.96 0.205078L117.519 4.45587C115.031 5.27174 112.412 5.6136 109.797 5.46369C106.407 5.25351 105.089 4.29822 103.083 5.01614C100.367 5.98733 99.7646 8.81832 98.1588 11.2832C96.341 14.0687 92.6994 17.2119 84.6719 18.7286" fill="#67C08B"/>
<path fill-rule="evenodd" clip-rule="evenodd" d="M84.3047 18.5226C91.0753 18.2794 95.4549 16.3299 98.2539 14.5079C101.288 12.5366 103.03 10.5706 106.76 10.1007C109.491 9.75706 110.708 10.576 114.044 10.2778C116.547 10.0403 118.98 9.31836 121.207 8.15234L122.102 12.7409C119.932 13.6477 117.624 14.1774 115.275 14.3072C111.427 14.5079 109.918 13.4582 106.802 13.9565C103.482 14.4879 102.102 16.0323 99.6774 17.5296C96.8482 19.2765 92.2124 20.5689 84.3047 18.5226Z" fill="#67C08B"/>
<path fill-rule="evenodd" clip-rule="evenodd" d="M83.4316 11.7584H77.246C72.6825 11.7584 68.3058 13.5713 65.0789 16.7982C61.8519 20.0251 60.0391 24.4018 60.0391 28.9654V42.4564C60.0392 45.3509 61.1892 48.1268 63.2359 50.1736C65.2826 52.2203 68.0586 53.3702 70.9531 53.3703H79.3786C82.2731 53.3702 85.049 52.2203 87.0958 50.1736C89.1425 48.1268 90.2924 45.3509 90.2925 42.4564V18.6187C90.2852 16.8014 89.56 15.0605 88.2749 13.7754C86.9899 12.4903 85.249 11.7657 83.4316 11.7584Z" fill="#14254C"/>
<path fill-rule="evenodd" clip-rule="evenodd" d="M88.7159 37.7554C88.7159 40.4467 87.9179 43.0777 86.4227 45.3155C84.9275 47.5533 82.8023 49.2974 80.3158 50.3274C77.8293 51.3574 75.0933 51.6269 72.4536 51.102C69.814 50.577 67.3892 49.2811 65.4861 47.3781C63.5829 45.4751 62.2868 43.0505 61.7616 40.4109C61.2364 37.7713 61.5057 35.0353 62.5355 32.5487C63.5653 30.0622 65.3093 27.9368 67.5469 26.4414C69.7846 24.946 72.4154 24.1477 75.1068 24.1475C76.8906 24.1442 78.6576 24.4924 80.3069 25.172C81.9561 25.8517 83.4554 26.8495 84.719 28.1086C85.9826 29.3676 86.9859 30.8633 87.6715 32.5101C88.3571 34.1569 88.7116 35.9226 88.7148 37.7065V37.7554" fill="#31475C"/>
<path fill-rule="evenodd" clip-rule="evenodd" d="M86.9222 31.1205C86.9222 31.0733 86.9162 31.0295 86.9156 30.9841C85.725 28.9019 84.0042 27.1723 81.9281 25.9711C79.8521 24.7699 77.495 24.14 75.0964 24.1455C72.6979 24.1511 70.3436 24.7917 68.2731 26.0025C66.2026 27.2132 64.4898 28.9508 63.3088 31.0384C63.3088 31.0656 63.3047 31.0927 63.3047 31.1205V44.4633C64.4861 46.552 66.1998 48.2904 68.2713 49.5016C70.3429 50.7128 72.6984 51.3535 75.0981 51.3586C77.4978 51.3636 79.8559 50.7328 81.9326 49.5303C84.0092 48.3278 85.7302 46.5966 86.9204 44.5129L86.9222 31.1205Z" fill="#E9AC6A"/>
<path fill-rule="evenodd" clip-rule="evenodd" d="M69.4844 40.0738H75.6681V29.3877L69.4844 40.0738Z" fill="#E26841"/>
<path d="M89.729 27.9707H61.5V29.3203H89.729V27.9707Z" fill="#14254C"/>
<path d="M89.729 34.1553H61.5V35.5049H89.729V34.1553Z" fill="#14254C"/>
<path d="M88.0422 46.415H61.5V47.8774H88.0422V46.415Z" fill="#14254C"/>
<path d="M89.729 40.2285H61.5V41.6909H89.729V40.2285Z" fill="#14254C"/>
<path d="M81.469 30.9453H82.8812C83.1444 30.9453 83.3969 31.0498 83.583 31.236C83.7692 31.4221 83.8737 31.6745 83.8737 31.9377V32.0139C83.8737 32.1442 83.848 32.2732 83.7982 32.3936C83.7483 32.514 83.6751 32.6234 83.583 32.7155C83.4908 32.8076 83.3814 32.8807 83.261 32.9305C83.1406 32.9803 83.0115 33.0059 82.8812 33.0058H81.469C81.2059 33.0058 80.9536 32.9013 80.7675 32.7153C80.5814 32.5293 80.4767 32.277 80.4766 32.0139V31.9377C80.4766 31.6745 80.5812 31.4221 80.7673 31.236C80.9534 31.0498 81.2058 30.9453 81.469 30.9453Z" fill="#EEF5FF"/>
<path d="M67.4847 30.9453H68.8969C69.1601 30.9453 69.4125 31.0498 69.5986 31.236C69.7847 31.4221 69.8893 31.6745 69.8893 31.9377V32.0139C69.8893 32.1442 69.8636 32.2732 69.8137 32.3936C69.7638 32.514 69.6908 32.6234 69.5986 32.7155C69.5064 32.8076 69.397 32.8807 69.2766 32.9305C69.1562 32.9803 69.0272 33.0059 68.8969 33.0058H67.4847C67.2215 33.0058 66.9692 32.9013 66.7831 32.7153C66.597 32.5293 66.4923 32.277 66.4922 32.0139V31.9377C66.4922 31.6745 66.5967 31.4221 66.7828 31.236C66.969 31.0498 67.2214 30.9453 67.4847 30.9453Z" fill="#EEF5FF"/>
<path d="M81.9578 31.792C82.1643 31.792 82.3661 31.8532 82.5378 31.9679C82.7094 32.0826 82.8432 32.2456 82.9222 32.4364C83.0012 32.6271 83.0219 32.837 82.9816 33.0394C82.9413 33.2419 82.8419 33.4279 82.6959 33.5739C82.5499 33.7199 82.364 33.8193 82.1615 33.8596C81.959 33.8999 81.7491 33.8792 81.5584 33.8002C81.3676 33.7212 81.2046 33.5874 81.0899 33.4157C80.9752 33.2441 80.9141 33.0423 80.9141 32.8358C80.9141 32.559 81.024 32.2935 81.2198 32.0977C81.4155 31.902 81.681 31.792 81.9578 31.792Z" fill="black"/>
<path d="M68.1923 31.792C68.3987 31.792 68.6005 31.8532 68.7722 31.9679C68.9438 32.0826 69.0776 32.2456 69.1566 32.4364C69.2357 32.6271 69.2563 32.837 69.216 33.0394C69.1758 33.2419 69.0763 33.4279 68.9304 33.5739C68.7844 33.7199 68.5984 33.8193 68.3959 33.8596C68.1934 33.8999 67.9835 33.8792 67.7928 33.8002C67.6021 33.7212 67.4391 33.5874 67.3244 33.4157C67.2097 33.2441 67.1484 33.0423 67.1484 32.8358C67.1484 32.559 67.2585 32.2935 67.4542 32.0977C67.65 31.902 67.9155 31.792 68.1923 31.792Z" fill="black"/>
<path d="M92.8136 70.4902H28.125V117.334H92.8136V70.4902Z" fill="#4F5D6C"/>
<path d="M92.8136 116.227H28.125V120.42H92.8136V116.227Z" fill="black"/>
<path d="M59.3223 96.4293L56.4442 92.7044C56.2993 92.5168 56.2099 92.2924 56.1861 92.0565C56.1623 91.8207 56.2051 91.5829 56.3096 91.3702C56.4141 91.1574 56.5762 90.9782 56.7773 90.8529C56.9785 90.7276 57.2108 90.6611 57.4479 90.6611H63.4758C63.7177 90.6608 63.9547 90.7297 64.1588 90.8598C64.3628 90.9898 64.5254 91.1755 64.6273 91.3949C64.7292 91.6144 64.7661 91.8585 64.7337 92.0983C64.7014 92.3381 64.601 92.5635 64.4446 92.7481L61.2949 96.4729C61.1876 96.6002 61.0562 96.705 60.9084 96.7815C60.7605 96.8579 60.5991 96.9045 60.4332 96.9186C60.2674 96.9326 60.1004 96.9138 59.9418 96.8633C59.7832 96.8127 59.6361 96.7315 59.5089 96.6241C59.4398 96.5661 59.3773 96.5008 59.3223 96.4293Z" fill="#EEF5FF"/>
<path d="M59.9617 93.442C59.8678 93.3214 59.8238 93.1694 59.8388 93.0173C59.8538 92.8653 59.9266 92.7248 60.0421 92.6248C60.1577 92.5249 60.3072 92.4731 60.4598 92.4801C60.6125 92.4872 60.7565 92.5525 60.8623 92.6628C60.9682 92.773 61.0277 92.9196 61.0285 93.0724C61.0294 93.2252 60.9716 93.3724 60.867 93.4838C60.7625 93.5952 60.6191 93.6623 60.4666 93.6711C60.3141 93.6799 60.1639 93.6298 60.0472 93.5311C60.0156 93.5045 59.987 93.4747 59.9617 93.442Z" fill="#4F5D6C"/>
<path d="M48.274 123.755L40.7589 123.985C40.2093 124.001 39.6635 123.889 39.1653 123.656C38.6671 123.424 38.2306 123.077 37.8909 122.645C37.5512 122.212 37.3177 121.706 37.2094 121.167C37.1011 120.628 37.1209 120.071 37.2673 119.541L37.9522 117.062C38.1912 116.197 38.7115 115.437 39.4307 114.902C40.15 114.366 41.0272 114.086 41.9238 114.104L47.4858 114.219C48.4584 114.239 49.391 114.61 50.1118 115.263C50.8325 115.917 51.2928 116.809 51.4078 117.775L51.6534 119.834C51.762 120.758 51.4993 121.688 50.9228 122.419C50.3464 123.149 49.5034 123.621 48.5792 123.731C48.4777 123.743 48.3761 123.751 48.274 123.754" fill="#67C08B"/>
<path d="M130.533 145.795L107.493 144.463L46.2325 145.664L1.9107 146.64C1.51277 146.646 1.13312 146.808 0.853276 147.091C0.573434 147.374 0.415699 147.755 0.414075 148.153C0.412451 148.551 0.56696 148.934 0.844483 149.219C1.12201 149.504 1.50044 149.669 1.89831 149.679L46.223 151.003L107.48 152.395L130.525 151.135L130.533 145.795Z" fill="#E9AC6A"/>
<path d="M42.6172 149.975L42.6225 146.679C42.6235 146.318 42.7676 145.973 43.0234 145.718C43.2791 145.463 43.6255 145.321 43.9864 145.321L45.9596 145.325C46.3204 145.326 46.6662 145.47 46.9208 145.726C47.1755 145.981 47.3181 146.328 47.3175 146.689L47.3128 149.984C47.3117 150.345 47.1675 150.691 46.9118 150.945C46.6561 151.2 46.3097 151.343 45.9489 151.342L43.9757 151.339C43.6148 151.338 43.2691 151.194 43.0144 150.938C42.7598 150.683 42.6166 150.336 42.6172 149.975Z" fill="black"/>
<path d="M0.306995 148.97V147.289C0.307228 147.136 0.337528 146.985 0.396075 146.845C0.454622 146.704 0.540375 146.576 0.648324 146.469C0.756273 146.361 0.884339 146.276 1.02525 146.218C1.16617 146.159 1.31707 146.13 1.4695 146.13L3.55307 146.133C3.70548 146.134 3.8563 146.164 3.99703 146.222C4.13777 146.281 4.26561 146.366 4.37324 146.474C4.48087 146.582 4.56621 146.71 4.62434 146.851C4.68246 146.992 4.71235 147.143 4.71212 147.295L4.70909 148.977C4.70886 149.13 4.67868 149.281 4.62016 149.421C4.56164 149.562 4.47595 149.69 4.36805 149.797C4.26016 149.905 4.13211 149.99 3.99127 150.048C3.85042 150.106 3.69952 150.136 3.54716 150.136L1.46359 150.133C1.31116 150.133 1.16037 150.102 1.01963 150.044C0.878895 149.985 0.751043 149.9 0.643423 149.792C0.535803 149.684 0.450445 149.556 0.392327 149.415C0.33421 149.274 0.304456 149.123 0.304689 148.97" fill="black"/>
<path d="M173.633 152.943L173.646 144.123L130.399 145.785L130.391 151.147L173.633 152.943Z" fill="black"/>
<path d="M127.43 158.769L127.462 138.488C127.462 138.343 127.49 138.2 127.546 138.066C127.602 137.932 127.683 137.811 127.786 137.709C127.889 137.606 128.01 137.525 128.144 137.47C128.278 137.415 128.422 137.386 128.567 137.387H130.166C130.458 137.387 130.739 137.504 130.945 137.711C131.152 137.919 131.268 138.199 131.267 138.492L131.235 158.772C131.235 158.917 131.206 159.061 131.151 159.195C131.095 159.328 131.014 159.45 130.911 159.552C130.808 159.654 130.686 159.736 130.553 159.791C130.419 159.846 130.275 159.874 130.13 159.874H128.531C128.239 159.873 127.958 159.757 127.752 159.549C127.545 159.342 127.429 159.062 127.43 158.769Z" fill="black"/>
</svg>
