<svg width="86" height="71" viewBox="0 0 86 71" fill="none" xmlns="http://www.w3.org/2000/svg">
<g filter="url(#filter0_dd_14396_149324)">
<g clip-path="url(#clip0_14396_149324)">
<rect x="2" y="8" width="82" height="60" rx="1" fill="white"/>
<g clip-path="url(#clip1_14396_149324)">
<mask id="path-3-inside-1_14396_149324" fill="white">
<path d="M2.25 8.25H19.75V67.75H2.25V8.25Z"/>
</mask>
<path d="M2.25 8.25H19.75V67.75H2.25V8.25Z" fill="#E4ECF6"/>
<path d="M19.75 8.25H19.5V67.75H19.75H20V8.25H19.75Z" fill="#C2D1EB" mask="url(#path-3-inside-1_14396_149324)"/>
<g filter="url(#filter1_ii_14396_149324)">
<rect x="2.25" y="36.0298" width="17.5" height="5.51655" fill="white"/>
</g>
<mask id="path-6-inside-2_14396_149324" fill="white">
<path d="M2.25 35.25H19.75V42.25H2.25V35.25Z"/>
</mask>
<path d="M2.25 35.25H19.75V42.25H2.25V35.25Z" fill="white"/>
<path d="M2.25 35.25V35.5H19.75V35.25V35H2.25V35.25ZM19.75 42.25V42H2.25V42.25V42.5H19.75V42.25Z" fill="#CCD8EE" mask="url(#path-6-inside-2_14396_149324)"/>
<g clip-path="url(#clip2_14396_149324)">
<g clip-path="url(#clip3_14396_149324)">
<rect x="7.75" y="66.2085" width="6" height="1.5" rx="0.75" fill="#90ABDA"/>
<rect x="8.25" y="59.2085" width="6" height="1.5" rx="0.75" fill="#90ABDA"/>
<rect x="8.25" y="59.2085" width="6" height="1.5" rx="0.75" fill="#90ABDA"/>
<rect x="8" y="52.2085" width="6" height="1.5" rx="0.75" fill="#90ABDA"/>
<rect x="8.25" y="45.2085" width="6" height="1.5" rx="0.75" fill="#90ABDA"/>
<rect x="6.25" y="38.2085" width="9.5" height="1.5" rx="0.75" fill="#5473C8"/>
<rect x="8" y="31.2085" width="6" height="1.5" rx="0.75" fill="#90ABDA"/>
<rect x="8" y="24.2085" width="6" height="1.5" rx="0.75" fill="#90ABDA"/>
<rect x="8.25" y="17.2085" width="6" height="1.5" rx="0.75" fill="#90ABDA"/>
<rect x="8" y="10.2085" width="6" height="1.5" rx="0.75" fill="#90ABDA"/>
</g>
</g>
<path fill-rule="evenodd" clip-rule="evenodd" d="M2.25 8.25H19.75V67.75H2.25V8.25Z" fill="url(#paint0_linear_14396_149324)"/>
</g>
<rect width="64" height="11.5" transform="translate(19.75 8.25)" fill="white"/>
<rect x="25.75" y="13.25" width="18.5" height="1.5" rx="0.75" fill="#5473C8"/>
<rect x="67.75" y="13.25" width="10" height="1.5" rx="0.75" fill="#90ABDA"/>
<g clip-path="url(#clip4_14396_149324)">
<rect width="64" height="48" transform="translate(19.75 19.75)" fill="white"/>
<g clip-path="url(#clip5_14396_149324)">
<path d="M68.0115 22.748V25.25H67.6953V23.1428L67.0579 23.3752V23.0898L67.9619 22.748H68.0115Z" fill="#3958AC"/>
<path d="M76.6028 24.9902V25.25H74.9741V25.0227L75.7893 24.1152C75.8896 24.0036 75.967 23.909 76.0217 23.8315C76.0776 23.7529 76.1163 23.6829 76.1379 23.6213C76.1607 23.5587 76.1721 23.4949 76.1721 23.4299C76.1721 23.3479 76.155 23.2738 76.1208 23.2078C76.0878 23.1405 76.0388 23.087 75.9739 23.0471C75.9089 23.0072 75.8303 22.9873 75.738 22.9873C75.6275 22.9873 75.5352 23.009 75.4612 23.0522C75.3883 23.0944 75.3336 23.1536 75.2971 23.23C75.2607 23.3063 75.2424 23.394 75.2424 23.4932H74.9263C74.9263 23.353 74.957 23.2249 75.0186 23.1086C75.0801 22.9924 75.1712 22.9001 75.292 22.8318C75.4128 22.7623 75.5614 22.7275 75.738 22.7275C75.8953 22.7275 76.0297 22.7555 76.1414 22.8113C76.253 22.866 76.3385 22.9434 76.3977 23.0437C76.4581 23.1428 76.4883 23.259 76.4883 23.3923C76.4883 23.4653 76.4757 23.5393 76.4507 23.6145C76.4268 23.6886 76.3931 23.7626 76.3499 23.8367C76.3077 23.9107 76.2581 23.9836 76.2012 24.0554C76.1453 24.1272 76.0855 24.1978 76.0217 24.2673L75.3552 24.9902H76.6028Z" fill="#3958AC"/>
<path d="M27.4338 31.8503H27.6594C27.7699 31.8503 27.8611 31.8321 27.9329 31.7957C28.0058 31.7581 28.0599 31.7074 28.0952 31.6436C28.1317 31.5786 28.1499 31.5057 28.1499 31.4248C28.1499 31.3291 28.134 31.2488 28.1021 31.1838C28.0701 31.1189 28.0223 31.0699 27.9585 31.0369C27.8947 31.0038 27.8138 30.9873 27.7158 30.9873C27.627 30.9873 27.5483 31.005 27.48 31.0403C27.4128 31.0745 27.3598 31.1235 27.321 31.1873C27.2834 31.2511 27.2646 31.3263 27.2646 31.4128H26.9485C26.9485 31.2864 26.9804 31.1713 27.0442 31.0676C27.108 30.9639 27.1974 30.8813 27.3125 30.8198C27.4287 30.7583 27.5632 30.7275 27.7158 30.7275C27.8662 30.7275 27.9978 30.7543 28.1106 30.8079C28.2234 30.8603 28.3111 30.9389 28.3738 31.0437C28.4364 31.1474 28.4678 31.2767 28.4678 31.4316C28.4678 31.4943 28.453 31.5615 28.4233 31.6333C28.3949 31.7039 28.3499 31.77 28.2883 31.8315C28.2279 31.8931 28.1493 31.9438 28.0525 31.9836C27.9556 32.0224 27.8394 32.0417 27.7039 32.0417H27.4338V31.8503ZM27.4338 32.1101V31.9204H27.7039C27.8622 31.9204 27.9932 31.9392 28.0969 31.9768C28.2006 32.0144 28.2821 32.0645 28.3413 32.1272C28.4017 32.1899 28.4438 32.2588 28.4678 32.334C28.4928 32.408 28.5054 32.4821 28.5054 32.5562C28.5054 32.6724 28.4854 32.7755 28.4456 32.8655C28.4068 32.9555 28.3516 33.0318 28.2798 33.0945C28.2091 33.1571 28.126 33.2044 28.0303 33.2363C27.9346 33.2682 27.8303 33.2842 27.7175 33.2842C27.6093 33.2842 27.5073 33.2688 27.4116 33.238C27.3171 33.2073 27.2333 33.1628 27.1604 33.1047C27.0875 33.0455 27.0305 32.9731 26.9895 32.8877C26.9485 32.8011 26.928 32.7026 26.928 32.592H27.2441C27.2441 32.6786 27.2629 32.7544 27.3005 32.8193C27.3393 32.8843 27.394 32.935 27.4646 32.9714C27.5364 33.0068 27.6207 33.0244 27.7175 33.0244C27.8144 33.0244 27.8975 33.0079 27.967 32.9749C28.0377 32.9407 28.0918 32.8894 28.1294 32.821C28.1681 32.7527 28.1875 32.6667 28.1875 32.563C28.1875 32.4593 28.1659 32.3744 28.1226 32.3083C28.0793 32.2411 28.0177 32.1916 27.938 32.1597C27.8594 32.1266 27.7665 32.1101 27.6594 32.1101H27.4338Z" fill="#3958AC"/>
<path d="M36.6541 32.4126V32.6724H34.8562V32.4861L35.9705 30.7617H36.2285L35.9517 31.2607L35.2151 32.4126H36.6541ZM36.3071 30.7617V33.25H35.991V30.7617H36.3071Z" fill="#3958AC"/>
<path d="M43.3723 32.0657L43.1194 32.0007L43.2441 30.7617H44.5208V31.054H43.5125L43.4373 31.7307C43.4828 31.7045 43.5404 31.68 43.6099 31.6572C43.6805 31.6344 43.7614 31.623 43.8525 31.623C43.9676 31.623 44.0707 31.643 44.1619 31.6829C44.253 31.7216 44.3305 31.7774 44.3943 31.8503C44.4592 31.9233 44.5088 32.011 44.543 32.1135C44.5771 32.2161 44.5942 32.3306 44.5942 32.457C44.5942 32.5767 44.5777 32.6866 44.5447 32.7869C44.5128 32.8871 44.4644 32.9749 44.3994 33.05C44.3345 33.1241 44.2524 33.1816 44.1533 33.2227C44.0553 33.2637 43.9397 33.2842 43.8064 33.2842C43.7061 33.2842 43.611 33.2705 43.521 33.2432C43.4321 33.2147 43.3524 33.172 43.2817 33.115C43.2122 33.0569 43.1553 32.9851 43.1108 32.8997C43.0675 32.8131 43.0402 32.7117 43.0288 32.5955H43.3296C43.3433 32.6889 43.3706 32.7675 43.4116 32.8313C43.4526 32.8951 43.5062 32.9435 43.5723 32.9766C43.6395 33.0085 43.7175 33.0244 43.8064 33.0244C43.8816 33.0244 43.9482 33.0113 44.0063 32.9851C44.0645 32.9589 44.1134 32.9213 44.1533 32.8723C44.1932 32.8233 44.2234 32.7641 44.2439 32.6946C44.2655 32.6251 44.2764 32.547 44.2764 32.4604C44.2764 32.3818 44.2655 32.3089 44.2439 32.2417C44.2222 32.1745 44.1898 32.1158 44.1465 32.0657C44.1043 32.0155 44.0525 31.9768 43.991 31.9495C43.9294 31.921 43.8588 31.9067 43.7791 31.9067C43.6731 31.9067 43.5928 31.921 43.5381 31.9495C43.4845 31.9779 43.4293 32.0167 43.3723 32.0657Z" fill="#3958AC"/>
<path d="M52.1858 30.7583H52.2131V31.0266H52.1858C52.0183 31.0266 51.8782 31.054 51.7654 31.1086C51.6526 31.1622 51.5632 31.2345 51.4971 31.3257C51.431 31.4157 51.3831 31.5171 51.3535 31.6299C51.325 31.7427 51.3108 31.8572 51.3108 31.9734V32.3391C51.3108 32.4496 51.3239 32.5476 51.3501 32.6331C51.3763 32.7174 51.4122 32.7886 51.4578 32.8467C51.5033 32.9048 51.5546 32.9486 51.6116 32.9783C51.6697 33.0079 51.7301 33.0227 51.7927 33.0227C51.8656 33.0227 51.9306 33.009 51.9875 32.9817C52.0445 32.9532 52.0924 32.9139 52.1311 32.8638C52.171 32.8125 52.2012 32.7521 52.2217 32.6826C52.2422 32.6131 52.2524 32.5368 52.2524 32.4536C52.2524 32.3796 52.2433 32.3083 52.2251 32.24C52.2069 32.1705 52.179 32.109 52.1414 32.0554C52.1038 32.0007 52.0565 31.958 51.9995 31.9272C51.9437 31.8953 51.877 31.8794 51.7996 31.8794C51.7118 31.8794 51.6298 31.901 51.5535 31.9443C51.4783 31.9865 51.4162 32.0423 51.3672 32.1118C51.3193 32.1802 51.292 32.2548 51.2852 32.3357L51.1177 32.334C51.1336 32.2064 51.1632 32.0976 51.2065 32.0076C51.251 31.9164 51.3057 31.8424 51.3706 31.7854C51.4367 31.7273 51.5102 31.6851 51.5911 31.6589C51.6731 31.6316 51.7597 31.6179 51.8508 31.6179C51.975 31.6179 52.0821 31.6413 52.1721 31.688C52.2621 31.7347 52.3362 31.7974 52.3943 31.876C52.4524 31.9535 52.4951 32.0412 52.5225 32.1392C52.5509 32.236 52.5652 32.3357 52.5652 32.4382C52.5652 32.5556 52.5487 32.6655 52.5156 32.7681C52.4826 32.8706 52.433 32.9606 52.3669 33.0381C52.302 33.1156 52.2217 33.1759 52.126 33.2192C52.0303 33.2625 51.9192 33.2842 51.7927 33.2842C51.6583 33.2842 51.5409 33.2568 51.4407 33.2021C51.3404 33.1463 51.2572 33.0723 51.1912 32.98C51.1251 32.8877 51.0755 32.7852 51.0425 32.6724C51.0094 32.5596 50.9929 32.4451 50.9929 32.3289V32.1802C50.9929 32.0047 51.0106 31.8327 51.0459 31.6641C51.0812 31.4954 51.1422 31.3428 51.2288 31.2061C51.3165 31.0693 51.4378 30.9605 51.5928 30.8796C51.7477 30.7987 51.9454 30.7583 52.1858 30.7583Z" fill="#3958AC"/>
<path d="M60.5806 30.7617V30.9395L59.55 33.25H59.2168L60.2456 31.0215H58.8989V30.7617H60.5806Z" fill="#3958AC"/>
<path d="M68.5413 32.5767C68.5413 32.7282 68.5059 32.8569 68.4353 32.9629C68.3658 33.0677 68.2712 33.1475 68.1516 33.2021C68.0331 33.2568 67.8993 33.2842 67.75 33.2842C67.6007 33.2842 67.4663 33.2568 67.3467 33.2021C67.2271 33.1475 67.1325 33.0677 67.063 32.9629C66.9935 32.8569 66.9587 32.7282 66.9587 32.5767C66.9587 32.4775 66.9775 32.387 67.0151 32.3049C67.0539 32.2218 67.108 32.1494 67.1775 32.0879C67.2481 32.0264 67.3313 31.9791 67.427 31.946C67.5238 31.9119 67.6304 31.8948 67.7466 31.8948C67.8993 31.8948 68.0354 31.9244 68.155 31.9836C68.2747 32.0417 68.3687 32.1221 68.437 32.2246C68.5065 32.3271 68.5413 32.4445 68.5413 32.5767ZM68.2234 32.5698C68.2234 32.4775 68.2035 32.3961 68.1636 32.3254C68.1237 32.2537 68.0679 32.1978 67.9961 32.158C67.9243 32.1181 67.8411 32.0981 67.7466 32.0981C67.6497 32.0981 67.566 32.1181 67.4954 32.158C67.4259 32.1978 67.3717 32.2537 67.333 32.3254C67.2943 32.3961 67.2749 32.4775 67.2749 32.5698C67.2749 32.6655 67.2937 32.7476 67.3313 32.8159C67.37 32.8831 67.4247 32.935 67.4954 32.9714C67.5671 33.0068 67.652 33.0244 67.75 33.0244C67.848 33.0244 67.9323 33.0068 68.0029 32.9714C68.0736 32.935 68.1277 32.8831 68.1653 32.8159C68.204 32.7476 68.2234 32.6655 68.2234 32.5698ZM68.4832 31.4094C68.4832 31.5302 68.4513 31.639 68.3875 31.7358C68.3236 31.8327 68.2365 31.909 68.126 31.9648C68.0155 32.0207 67.8901 32.0486 67.75 32.0486C67.6076 32.0486 67.4806 32.0207 67.3689 31.9648C67.2584 31.909 67.1718 31.8327 67.1091 31.7358C67.0465 31.639 67.0151 31.5302 67.0151 31.4094C67.0151 31.2647 67.0465 31.1417 67.1091 31.0403C67.1729 30.9389 67.2601 30.8614 67.3706 30.8079C67.4811 30.7543 67.607 30.7275 67.7483 30.7275C67.8907 30.7275 68.0172 30.7543 68.1277 30.8079C68.2382 30.8614 68.3248 30.9389 68.3875 31.0403C68.4513 31.1417 68.4832 31.2647 68.4832 31.4094ZM68.167 31.4146C68.167 31.3314 68.1493 31.2579 68.114 31.1941C68.0787 31.1303 68.0297 31.0802 67.967 31.0437C67.9044 31.0061 67.8315 30.9873 67.7483 30.9873C67.6651 30.9873 67.5922 31.005 67.5295 31.0403C67.468 31.0745 67.4196 31.1235 67.3843 31.1873C67.3501 31.2511 67.333 31.3268 67.333 31.4146C67.333 31.5 67.3501 31.5746 67.3843 31.6384C67.4196 31.7022 67.4686 31.7518 67.5312 31.7871C67.5939 31.8224 67.6668 31.8401 67.75 31.8401C67.8332 31.8401 67.9055 31.8224 67.967 31.7871C68.0297 31.7518 68.0787 31.7022 68.114 31.6384C68.1493 31.5746 68.167 31.5 68.167 31.4146Z" fill="#3958AC"/>
<path d="M75.2869 32.9851H75.3193C75.5016 32.9851 75.6497 32.9595 75.7637 32.9082C75.8776 32.8569 75.9653 32.788 76.0269 32.7014C76.0884 32.6148 76.1305 32.5174 76.1533 32.4092C76.1761 32.2998 76.1875 32.1876 76.1875 32.0725V31.6914C76.1875 31.5786 76.1744 31.4784 76.1482 31.3906C76.1231 31.3029 76.0878 31.2294 76.0422 31.1702C75.9978 31.1109 75.9471 31.0659 75.8901 31.0352C75.8332 31.0044 75.7728 30.989 75.709 30.989C75.6361 30.989 75.5706 31.0038 75.5125 31.0334C75.4555 31.0619 75.4071 31.1024 75.3672 31.1548C75.3285 31.2072 75.2988 31.2687 75.2783 31.3394C75.2578 31.41 75.2476 31.4869 75.2476 31.5701C75.2476 31.6441 75.2567 31.7159 75.2749 31.7854C75.2931 31.8549 75.321 31.9176 75.3586 31.9734C75.3962 32.0292 75.443 32.0736 75.4988 32.1067C75.5557 32.1386 75.6224 32.1545 75.6987 32.1545C75.7694 32.1545 75.8354 32.1409 75.897 32.1135C75.9596 32.085 76.0149 32.0469 76.0627 31.999C76.1117 31.95 76.1505 31.8948 76.179 31.8333C76.2086 31.7717 76.2257 31.7074 76.2302 31.6401H76.3806C76.3806 31.7347 76.3618 31.8281 76.3242 31.9204C76.2878 32.0116 76.2365 32.0947 76.1704 32.1699C76.1043 32.2451 76.0269 32.3055 75.938 32.3511C75.8491 32.3955 75.7523 32.4177 75.6475 32.4177C75.5244 32.4177 75.4179 32.3938 75.3279 32.3459C75.2379 32.2981 75.1638 32.2343 75.1057 32.1545C75.0487 32.0748 75.006 31.9859 74.9775 31.8879C74.9502 31.7888 74.9365 31.6886 74.9365 31.5872C74.9365 31.4687 74.953 31.3576 74.9861 31.2539C75.0191 31.1502 75.0681 31.0591 75.1331 30.9805C75.198 30.9007 75.2783 30.8386 75.374 30.7942C75.4709 30.7498 75.5825 30.7275 75.709 30.7275C75.8514 30.7275 75.9727 30.756 76.073 30.813C76.1733 30.87 76.2547 30.9463 76.3174 31.042C76.3812 31.1377 76.4279 31.2454 76.4575 31.365C76.4871 31.4846 76.502 31.6077 76.502 31.7341V31.8486C76.502 31.9774 76.4934 32.1084 76.4763 32.2417C76.4604 32.3739 76.429 32.5003 76.3823 32.6211C76.3368 32.7419 76.2701 32.8501 76.1824 32.9458C76.0946 33.0404 75.9801 33.1156 75.8389 33.1714C75.6987 33.2261 75.5256 33.2534 75.3193 33.2534H75.2869V32.9851Z" fill="#3958AC"/>
<path d="M27.0271 38.748V41.25H26.7109V39.1428L26.0735 39.3752V39.0898L26.9775 38.748H27.0271ZM29.5188 39.8076V40.187C29.5188 40.391 29.5006 40.563 29.4641 40.7031C29.4277 40.8433 29.3752 40.9561 29.3069 41.0415C29.2385 41.127 29.1559 41.189 29.0591 41.2278C28.9634 41.2654 28.8551 41.2842 28.7344 41.2842C28.6387 41.2842 28.5504 41.2722 28.4695 41.2483C28.3886 41.2244 28.3157 41.1862 28.2507 41.1338C28.1869 41.0802 28.1322 41.0107 28.0867 40.9253C28.0411 40.8398 28.0063 40.7362 27.9824 40.6143C27.9585 40.4924 27.9465 40.3499 27.9465 40.187V39.8076C27.9465 39.6037 27.9648 39.4328 28.0012 39.2949C28.0388 39.1571 28.0918 39.0465 28.1602 38.9634C28.2285 38.8791 28.3105 38.8187 28.4062 38.7822C28.5031 38.7458 28.6113 38.7275 28.731 38.7275C28.8278 38.7275 28.9167 38.7395 28.9976 38.7634C29.0796 38.7862 29.1525 38.8232 29.2163 38.8745C29.2801 38.9246 29.3342 38.9919 29.3787 39.0762C29.4242 39.1593 29.459 39.2613 29.4829 39.3821C29.5068 39.5028 29.5188 39.6447 29.5188 39.8076ZM29.2009 40.2383V39.7546C29.2009 39.643 29.1941 39.545 29.1804 39.4607C29.1679 39.3752 29.1491 39.3023 29.124 39.2419C29.099 39.1816 29.0671 39.1326 29.0283 39.095C28.9907 39.0574 28.9469 39.03 28.8967 39.0129C28.8477 38.9947 28.7925 38.9856 28.731 38.9856C28.6558 38.9856 28.5891 38.9998 28.531 39.0283C28.4729 39.0557 28.4239 39.0995 28.384 39.1599C28.3453 39.2203 28.3157 39.2995 28.2952 39.3975C28.2747 39.4954 28.2644 39.6145 28.2644 39.7546V40.2383C28.2644 40.3499 28.2707 40.4485 28.2832 40.5339C28.2969 40.6194 28.3168 40.6934 28.343 40.7561C28.3692 40.8176 28.4011 40.8683 28.4387 40.9082C28.4763 40.9481 28.5196 40.9777 28.5686 40.9971C28.6187 41.0153 28.674 41.0244 28.7344 41.0244C28.8118 41.0244 28.8796 41.0096 28.9377 40.98C28.9958 40.9504 29.0443 40.9042 29.083 40.8416C29.1229 40.7778 29.1525 40.6963 29.1719 40.5972C29.1912 40.4969 29.2009 40.3773 29.2009 40.2383Z" fill="#3958AC"/>
<path d="M35.0271 38.748V41.25H34.7109V39.1428L34.0735 39.3752V39.0898L34.9775 38.748H35.0271ZM36.9958 38.748V41.25H36.6797V39.1428L36.0422 39.3752V39.0898L36.9463 38.748H36.9958Z" fill="#3958AC"/>
<path d="M43.0271 38.748V41.25H42.7109V39.1428L42.0735 39.3752V39.0898L42.9775 38.748H43.0271ZM45.5872 40.9902V41.25H43.9585V41.0227L44.7737 40.1152C44.8739 40.0036 44.9514 39.909 45.0061 39.8315C45.0619 39.7529 45.1007 39.6829 45.1223 39.6213C45.1451 39.5587 45.1565 39.4949 45.1565 39.4299C45.1565 39.3479 45.1394 39.2738 45.1052 39.2078C45.0722 39.1405 45.0232 39.087 44.9583 39.0471C44.8933 39.0072 44.8147 38.9873 44.7224 38.9873C44.6119 38.9873 44.5196 39.009 44.4456 39.0522C44.3726 39.0944 44.318 39.1536 44.2815 39.23C44.245 39.3063 44.2268 39.394 44.2268 39.4932H43.9106C43.9106 39.353 43.9414 39.2249 44.0029 39.1086C44.0645 38.9924 44.1556 38.9001 44.2764 38.8318C44.3971 38.7623 44.5458 38.7275 44.7224 38.7275C44.8796 38.7275 45.0141 38.7555 45.1257 38.8113C45.2374 38.866 45.3228 38.9434 45.3821 39.0437C45.4425 39.1428 45.4727 39.259 45.4727 39.3923C45.4727 39.4653 45.4601 39.5393 45.4351 39.6145C45.4111 39.6886 45.3775 39.7626 45.3342 39.8367C45.2921 39.9107 45.2425 39.9836 45.1855 40.0554C45.1297 40.1272 45.0699 40.1978 45.0061 40.2673L44.3396 40.9902H45.5872Z" fill="#3958AC"/>
<path d="M51.0271 38.748V41.25H50.7109V39.1428L50.0735 39.3752V39.0898L50.9775 38.748H51.0271ZM52.4182 39.8503H52.6438C52.7543 39.8503 52.8455 39.8321 52.9172 39.7957C52.9902 39.7581 53.0443 39.7074 53.0796 39.6436C53.116 39.5786 53.1343 39.5057 53.1343 39.4248C53.1343 39.3291 53.1183 39.2488 53.0864 39.1838C53.0545 39.1189 53.0067 39.0699 52.9429 39.0369C52.8791 39.0038 52.7982 38.9873 52.7002 38.9873C52.6113 38.9873 52.5327 39.005 52.4644 39.0403C52.3971 39.0745 52.3442 39.1235 52.3054 39.1873C52.2678 39.2511 52.249 39.3263 52.249 39.4128H51.9329C51.9329 39.2864 51.9648 39.1713 52.0286 39.0676C52.0924 38.9639 52.1818 38.8813 52.2969 38.8198C52.4131 38.7583 52.5475 38.7275 52.7002 38.7275C52.8506 38.7275 52.9822 38.7543 53.095 38.8079C53.2078 38.8603 53.2955 38.9389 53.3582 39.0437C53.4208 39.1474 53.4521 39.2767 53.4521 39.4316C53.4521 39.4943 53.4373 39.5615 53.4077 39.6333C53.3792 39.7039 53.3342 39.77 53.2727 39.8315C53.2123 39.8931 53.1337 39.9438 53.0369 39.9836C52.94 40.0224 52.8238 40.0417 52.6882 40.0417H52.4182V39.8503ZM52.4182 40.1101V39.9204H52.6882C52.8466 39.9204 52.9776 39.9392 53.0813 39.9768C53.185 40.0144 53.2664 40.0645 53.3257 40.1272C53.3861 40.1899 53.4282 40.2588 53.4521 40.334C53.4772 40.408 53.4897 40.4821 53.4897 40.5562C53.4897 40.6724 53.4698 40.7755 53.4299 40.8655C53.3912 40.9555 53.3359 41.0318 53.2642 41.0945C53.1935 41.1571 53.1104 41.2044 53.0146 41.2363C52.9189 41.2682 52.8147 41.2842 52.7019 41.2842C52.5937 41.2842 52.4917 41.2688 52.396 41.238C52.3014 41.2073 52.2177 41.1628 52.1448 41.1047C52.0719 41.0455 52.0149 40.9731 51.9739 40.8877C51.9329 40.8011 51.9124 40.7026 51.9124 40.592H52.2285C52.2285 40.6786 52.2473 40.7544 52.2849 40.8193C52.3236 40.8843 52.3783 40.935 52.449 40.9714C52.5208 41.0068 52.6051 41.0244 52.7019 41.0244C52.7987 41.0244 52.8819 41.0079 52.9514 40.9749C53.0221 40.9407 53.0762 40.8894 53.1138 40.821C53.1525 40.7527 53.1719 40.6667 53.1719 40.563C53.1719 40.4593 53.1502 40.3744 53.1069 40.3083C53.0636 40.2411 53.0021 40.1916 52.9224 40.1597C52.8438 40.1266 52.7509 40.1101 52.6438 40.1101H52.4182Z" fill="#3958AC"/>
<path d="M59.0271 38.748V41.25H58.7109V39.1428L58.0735 39.3752V39.0898L58.9775 38.748H59.0271ZM61.6384 40.4126V40.6724H59.8406V40.4861L60.9548 38.7617H61.2129L60.936 39.2607L60.1995 40.4126H61.6384ZM61.2915 38.7617V41.25H60.9753V38.7617H61.2915Z" fill="#3958AC"/>
<path d="M67.0271 38.748V41.25H66.7109V39.1428L66.0735 39.3752V39.0898L66.9775 38.748H67.0271ZM68.3567 40.0657L68.1038 40.0007L68.2285 38.7617H69.5051V39.054H68.4968L68.4216 39.7307C68.4672 39.7045 68.5247 39.68 68.5942 39.6572C68.6649 39.6344 68.7458 39.623 68.8369 39.623C68.952 39.623 69.0551 39.643 69.1462 39.6829C69.2374 39.7216 69.3149 39.7774 69.3787 39.8503C69.4436 39.9233 69.4932 40.011 69.5273 40.1135C69.5615 40.2161 69.5786 40.3306 69.5786 40.457C69.5786 40.5767 69.5621 40.6866 69.5291 40.7869C69.4972 40.8871 69.4487 40.9749 69.3838 41.05C69.3188 41.1241 69.2368 41.1816 69.1377 41.2227C69.0397 41.2637 68.9241 41.2842 68.7908 41.2842C68.6905 41.2842 68.5954 41.2705 68.5054 41.2432C68.4165 41.2147 68.3368 41.172 68.2661 41.115C68.1966 41.0569 68.1396 40.9851 68.0952 40.8997C68.0519 40.8131 68.0246 40.7117 68.0132 40.5955H68.314C68.3276 40.6889 68.355 40.7675 68.396 40.8313C68.437 40.8951 68.4906 40.9435 68.5566 40.9766C68.6239 41.0085 68.7019 41.0244 68.7908 41.0244C68.866 41.0244 68.9326 41.0113 68.9907 40.9851C69.0488 40.9589 69.0978 40.9213 69.1377 40.8723C69.1776 40.8233 69.2078 40.7641 69.2283 40.6946C69.2499 40.6251 69.2607 40.547 69.2607 40.4604C69.2607 40.3818 69.2499 40.3089 69.2283 40.2417C69.2066 40.1745 69.1742 40.1158 69.1309 40.0657C69.0887 40.0155 69.0369 39.9768 68.9753 39.9495C68.9138 39.921 68.8432 39.9067 68.7634 39.9067C68.6575 39.9067 68.5771 39.921 68.5225 39.9495C68.4689 39.9779 68.4137 40.0167 68.3567 40.0657Z" fill="#3958AC"/>
<path d="M75.0271 38.748V41.25H74.7109V39.1428L74.0735 39.3752V39.0898L74.9775 38.748H75.0271ZM77.1702 38.7583H77.1975V39.0266H77.1702C77.0027 39.0266 76.8625 39.054 76.7498 39.1086C76.637 39.1622 76.5475 39.2345 76.4814 39.3257C76.4154 39.4157 76.3675 39.5171 76.3379 39.6299C76.3094 39.7427 76.2952 39.8572 76.2952 39.9734V40.3391C76.2952 40.4496 76.3083 40.5476 76.3345 40.6331C76.3607 40.7174 76.3966 40.7886 76.4421 40.8467C76.4877 40.9048 76.539 40.9486 76.5959 40.9783C76.6541 41.0079 76.7144 41.0227 76.7771 41.0227C76.85 41.0227 76.915 41.009 76.9719 40.9817C77.0289 40.9532 77.0767 40.9139 77.1155 40.8638C77.1554 40.8125 77.1855 40.7521 77.2061 40.6826C77.2266 40.6131 77.2368 40.5368 77.2368 40.4536C77.2368 40.3796 77.2277 40.3083 77.2095 40.24C77.1912 40.1705 77.1633 40.109 77.1257 40.0554C77.0881 40.0007 77.0409 39.958 76.9839 39.9272C76.9281 39.8953 76.8614 39.8794 76.7839 39.8794C76.6962 39.8794 76.6142 39.901 76.5378 39.9443C76.4626 39.9865 76.4006 40.0423 76.3516 40.1118C76.3037 40.1802 76.2764 40.2548 76.2695 40.3357L76.1021 40.334C76.118 40.2064 76.1476 40.0976 76.1909 40.0076C76.2354 39.9164 76.29 39.8424 76.355 39.7854C76.4211 39.7273 76.4945 39.6851 76.5754 39.6589C76.6575 39.6316 76.7441 39.6179 76.8352 39.6179C76.9594 39.6179 77.0665 39.6413 77.1565 39.688C77.2465 39.7347 77.3206 39.7974 77.3787 39.876C77.4368 39.9535 77.4795 40.0412 77.5068 40.1392C77.5353 40.236 77.5496 40.3357 77.5496 40.4382C77.5496 40.5556 77.533 40.6655 77.5 40.7681C77.467 40.8706 77.4174 40.9606 77.3513 41.0381C77.2864 41.1156 77.2061 41.1759 77.1104 41.2192C77.0146 41.2625 76.9036 41.2842 76.7771 41.2842C76.6427 41.2842 76.5253 41.2568 76.425 41.2021C76.3248 41.1463 76.2416 41.0723 76.1755 40.98C76.1095 40.8877 76.0599 40.7852 76.0269 40.6724C75.9938 40.5596 75.9773 40.4451 75.9773 40.3289V40.1802C75.9773 40.0047 75.995 39.8327 76.0303 39.6641C76.0656 39.4954 76.1265 39.3428 76.2131 39.2061C76.3009 39.0693 76.4222 38.9605 76.5771 38.8796C76.7321 38.7987 76.9298 38.7583 77.1702 38.7583Z" fill="#3958AC"/>
<path d="M27.0271 46.748V49.25H26.7109V47.1428L26.0735 47.3752V47.0898L26.9775 46.748H27.0271ZM29.5649 46.7617V46.9395L28.5344 49.25H28.2012L29.23 47.0215H27.8833V46.7617H29.5649Z" fill="#3958AC"/>
<path d="M35.0271 46.748V49.25H34.7109V47.1428L34.0735 47.3752V47.0898L34.9775 46.748H35.0271ZM37.5256 48.5767C37.5256 48.7282 37.4903 48.8569 37.4197 48.9629C37.3502 49.0677 37.2556 49.1475 37.136 49.2021C37.0175 49.2568 36.8836 49.2842 36.7344 49.2842C36.5851 49.2842 36.4507 49.2568 36.3311 49.2021C36.2114 49.1475 36.1169 49.0677 36.0474 48.9629C35.9779 48.8569 35.9431 48.7282 35.9431 48.5767C35.9431 48.4775 35.9619 48.387 35.9995 48.3049C36.0382 48.2218 36.0924 48.1494 36.1619 48.0879C36.2325 48.0264 36.3157 47.9791 36.4114 47.946C36.5082 47.9119 36.6147 47.8948 36.731 47.8948C36.8836 47.8948 37.0198 47.9244 37.1394 47.9836C37.259 48.0417 37.353 48.1221 37.4214 48.2246C37.4909 48.3271 37.5256 48.4445 37.5256 48.5767ZM37.2078 48.5698C37.2078 48.4775 37.1878 48.3961 37.1479 48.3254C37.1081 48.2537 37.0522 48.1978 36.9805 48.158C36.9087 48.1181 36.8255 48.0981 36.731 48.0981C36.6341 48.0981 36.5504 48.1181 36.4797 48.158C36.4102 48.1978 36.3561 48.2537 36.3174 48.3254C36.2786 48.3961 36.2593 48.4775 36.2593 48.5698C36.2593 48.6655 36.2781 48.7476 36.3157 48.8159C36.3544 48.8831 36.4091 48.935 36.4797 48.9714C36.5515 49.0068 36.6364 49.0244 36.7344 49.0244C36.8324 49.0244 36.9167 49.0068 36.9873 48.9714C37.0579 48.935 37.1121 48.8831 37.1497 48.8159C37.1884 48.7476 37.2078 48.6655 37.2078 48.5698ZM37.4675 47.4094C37.4675 47.5302 37.4356 47.639 37.3718 47.7358C37.308 47.8327 37.2209 47.909 37.1104 47.9648C36.9998 48.0207 36.8745 48.0486 36.7344 48.0486C36.592 48.0486 36.4649 48.0207 36.3533 47.9648C36.2428 47.909 36.1562 47.8327 36.0935 47.7358C36.0308 47.639 35.9995 47.5302 35.9995 47.4094C35.9995 47.2647 36.0308 47.1417 36.0935 47.0403C36.1573 46.9389 36.2445 46.8614 36.355 46.8079C36.4655 46.7543 36.5914 46.7275 36.7327 46.7275C36.8751 46.7275 37.0015 46.7543 37.1121 46.8079C37.2226 46.8614 37.3092 46.9389 37.3718 47.0403C37.4356 47.1417 37.4675 47.2647 37.4675 47.4094ZM37.1514 47.4146C37.1514 47.3314 37.1337 47.2579 37.0984 47.1941C37.0631 47.1303 37.0141 47.0802 36.9514 47.0437C36.8888 47.0061 36.8158 46.9873 36.7327 46.9873C36.6495 46.9873 36.5766 47.005 36.5139 47.0403C36.4524 47.0745 36.404 47.1235 36.3687 47.1873C36.3345 47.2511 36.3174 47.3268 36.3174 47.4146C36.3174 47.5 36.3345 47.5746 36.3687 47.6384C36.404 47.7022 36.453 47.7518 36.5156 47.7871C36.5783 47.8224 36.6512 47.8401 36.7344 47.8401C36.8175 47.8401 36.8899 47.8224 36.9514 47.7871C37.0141 47.7518 37.0631 47.7022 37.0984 47.6384C37.1337 47.5746 37.1514 47.5 37.1514 47.4146Z" fill="#3958AC"/>
<path d="M43.0271 46.748V49.25H42.7109V47.1428L42.0735 47.3752V47.0898L42.9775 46.748H43.0271ZM44.2712 48.9851H44.3037C44.486 48.9851 44.6341 48.9595 44.748 48.9082C44.862 48.8569 44.9497 48.788 45.0112 48.7014C45.0728 48.6148 45.1149 48.5174 45.1377 48.4092C45.1605 48.2998 45.1719 48.1876 45.1719 48.0725V47.6914C45.1719 47.5786 45.1588 47.4784 45.1326 47.3906C45.1075 47.3029 45.0722 47.2294 45.0266 47.1702C44.9822 47.1109 44.9315 47.0659 44.8745 47.0352C44.8175 47.0044 44.7572 46.989 44.6934 46.989C44.6204 46.989 44.5549 47.0038 44.4968 47.0334C44.4399 47.0619 44.3914 47.1024 44.3516 47.1548C44.3128 47.2072 44.2832 47.2687 44.2627 47.3394C44.2422 47.41 44.2319 47.4869 44.2319 47.5701C44.2319 47.6441 44.241 47.7159 44.2593 47.7854C44.2775 47.8549 44.3054 47.9176 44.343 47.9734C44.3806 48.0292 44.4273 48.0736 44.4832 48.1067C44.5401 48.1386 44.6068 48.1545 44.6831 48.1545C44.7537 48.1545 44.8198 48.1409 44.8813 48.1135C44.944 48.085 44.9993 48.0469 45.0471 47.999C45.0961 47.95 45.1348 47.8948 45.1633 47.8333C45.193 47.7717 45.21 47.7074 45.2146 47.6401H45.365C45.365 47.7347 45.3462 47.8281 45.3086 47.9204C45.2721 48.0116 45.2209 48.0947 45.1548 48.1699C45.0887 48.2451 45.0112 48.3055 44.9224 48.3511C44.8335 48.3955 44.7367 48.4177 44.6318 48.4177C44.5088 48.4177 44.4023 48.3938 44.3123 48.3459C44.2222 48.2981 44.1482 48.2343 44.0901 48.1545C44.0331 48.0748 43.9904 47.9859 43.9619 47.8879C43.9346 47.7888 43.9209 47.6886 43.9209 47.5872C43.9209 47.4687 43.9374 47.3576 43.9705 47.2539C44.0035 47.1502 44.0525 47.0591 44.1174 46.9805C44.1824 46.9007 44.2627 46.8386 44.3584 46.7942C44.4552 46.7498 44.5669 46.7275 44.6934 46.7275C44.8358 46.7275 44.9571 46.756 45.0574 46.813C45.1576 46.87 45.2391 46.9463 45.3018 47.042C45.3656 47.1377 45.4123 47.2454 45.4419 47.365C45.4715 47.4846 45.4863 47.6077 45.4863 47.7341V47.8486C45.4863 47.9774 45.4778 48.1084 45.4607 48.2417C45.4447 48.3739 45.4134 48.5003 45.3667 48.6211C45.3211 48.7419 45.2545 48.8501 45.1667 48.9458C45.079 49.0404 44.9645 49.1156 44.8232 49.1714C44.6831 49.2261 44.5099 49.2534 44.3037 49.2534H44.2712V48.9851Z" fill="#3958AC"/>
<path d="M47.75 44.75C47.75 44.1977 48.1977 43.75 48.75 43.75H54.75C55.3023 43.75 55.75 44.1977 55.75 44.75V50.75C55.75 51.3023 55.3023 51.75 54.75 51.75H48.75C48.1977 51.75 47.75 51.3023 47.75 50.75V44.75Z" fill="#C2D1EB"/>
<path d="M51.6184 48.9902V49.25H49.9897V49.0227L50.8049 48.1152C50.9052 48.0036 50.9827 47.909 51.0374 47.8315C51.0932 47.7529 51.1319 47.6829 51.1536 47.6213C51.1764 47.5587 51.1877 47.4949 51.1877 47.4299C51.1877 47.3479 51.1707 47.2738 51.1365 47.2078C51.1034 47.1405 51.0544 47.087 50.9895 47.0471C50.9246 47.0072 50.8459 46.9873 50.7537 46.9873C50.6431 46.9873 50.5509 47.009 50.4768 47.0522C50.4039 47.0944 50.3492 47.1536 50.3127 47.23C50.2763 47.3063 50.2581 47.394 50.2581 47.4932H49.9419C49.9419 47.353 49.9727 47.2249 50.0342 47.1086C50.0957 46.9924 50.1868 46.9001 50.3076 46.8318C50.4284 46.7623 50.5771 46.7275 50.7537 46.7275C50.9109 46.7275 51.0453 46.7555 51.157 46.8113C51.2686 46.866 51.3541 46.9434 51.4133 47.0437C51.4737 47.1428 51.5039 47.259 51.5039 47.3923C51.5039 47.4653 51.4914 47.5393 51.4663 47.6145C51.4424 47.6886 51.4088 47.7626 51.3655 47.8367C51.3233 47.9107 51.2738 47.9836 51.2168 48.0554C51.161 48.1272 51.1012 48.1978 51.0374 48.2673L50.3708 48.9902H51.6184ZM53.5188 47.8076V48.187C53.5188 48.391 53.5006 48.563 53.4641 48.7031C53.4277 48.8433 53.3752 48.9561 53.3069 49.0415C53.2385 49.127 53.1559 49.189 53.0591 49.2278C52.9634 49.2654 52.8551 49.2842 52.7344 49.2842C52.6387 49.2842 52.5504 49.2722 52.4695 49.2483C52.3886 49.2244 52.3157 49.1862 52.2507 49.1338C52.1869 49.0802 52.1322 49.0107 52.0867 48.9253C52.0411 48.8398 52.0063 48.7362 51.9824 48.6143C51.9585 48.4924 51.9465 48.3499 51.9465 48.187V47.8076C51.9465 47.6037 51.9648 47.4328 52.0012 47.2949C52.0388 47.1571 52.0918 47.0465 52.1602 46.9634C52.2285 46.8791 52.3105 46.8187 52.4062 46.7822C52.5031 46.7458 52.6113 46.7275 52.731 46.7275C52.8278 46.7275 52.9167 46.7395 52.9976 46.7634C53.0796 46.7862 53.1525 46.8232 53.2163 46.8745C53.2801 46.9246 53.3342 46.9919 53.3787 47.0762C53.4242 47.1593 53.459 47.2613 53.4829 47.3821C53.5068 47.5028 53.5188 47.6447 53.5188 47.8076ZM53.2009 48.2383V47.7546C53.2009 47.643 53.1941 47.545 53.1804 47.4607C53.1679 47.3752 53.1491 47.3023 53.124 47.2419C53.099 47.1816 53.0671 47.1326 53.0283 47.095C52.9907 47.0574 52.9469 47.03 52.8967 47.0129C52.8477 46.9947 52.7925 46.9856 52.731 46.9856C52.6558 46.9856 52.5891 46.9998 52.531 47.0283C52.4729 47.0557 52.4239 47.0995 52.384 47.1599C52.3453 47.2203 52.3157 47.2995 52.2952 47.3975C52.2747 47.4954 52.2644 47.6145 52.2644 47.7546V48.2383C52.2644 48.3499 52.2707 48.4485 52.2832 48.5339C52.2969 48.6194 52.3168 48.6934 52.343 48.7561C52.3692 48.8176 52.4011 48.8683 52.4387 48.9082C52.4763 48.9481 52.5196 48.9777 52.5686 48.9971C52.6187 49.0153 52.674 49.0244 52.7344 49.0244C52.8118 49.0244 52.8796 49.0096 52.9377 48.98C52.9958 48.9504 53.0443 48.9042 53.083 48.8416C53.1229 48.7778 53.1525 48.6963 53.1719 48.5972C53.1912 48.4969 53.2009 48.3773 53.2009 48.2383Z" fill="#3958AC"/>
<path d="M59.6184 48.9902V49.25H57.9897V49.0227L58.8049 48.1152C58.9052 48.0036 58.9827 47.909 59.0374 47.8315C59.0932 47.7529 59.1319 47.6829 59.1536 47.6213C59.1764 47.5587 59.1877 47.4949 59.1877 47.4299C59.1877 47.3479 59.1707 47.2738 59.1365 47.2078C59.1034 47.1405 59.0544 47.087 58.9895 47.0471C58.9246 47.0072 58.8459 46.9873 58.7537 46.9873C58.6431 46.9873 58.5509 47.009 58.4768 47.0522C58.4039 47.0944 58.3492 47.1536 58.3127 47.23C58.2763 47.3063 58.2581 47.394 58.2581 47.4932H57.9419C57.9419 47.353 57.9727 47.2249 58.0342 47.1086C58.0957 46.9924 58.1868 46.9001 58.3076 46.8318C58.4284 46.7623 58.5771 46.7275 58.7537 46.7275C58.9109 46.7275 59.0453 46.7555 59.157 46.8113C59.2686 46.866 59.3541 46.9434 59.4133 47.0437C59.4737 47.1428 59.5039 47.259 59.5039 47.3923C59.5039 47.4653 59.4914 47.5393 59.4663 47.6145C59.4424 47.6886 59.4088 47.7626 59.3655 47.8367C59.3233 47.9107 59.2738 47.9836 59.2168 48.0554C59.161 48.1272 59.1012 48.1978 59.0374 48.2673L58.3708 48.9902H59.6184ZM60.9958 46.748V49.25H60.6797V47.1428L60.0422 47.3752V47.0898L60.9463 46.748H60.9958Z" fill="#3958AC"/>
<path d="M67.6184 48.9902V49.25H65.9897V49.0227L66.8049 48.1152C66.9052 48.0036 66.9827 47.909 67.0374 47.8315C67.0932 47.7529 67.1319 47.6829 67.1536 47.6213C67.1764 47.5587 67.1877 47.4949 67.1877 47.4299C67.1877 47.3479 67.1707 47.2738 67.1365 47.2078C67.1034 47.1405 67.0544 47.087 66.9895 47.0471C66.9246 47.0072 66.8459 46.9873 66.7537 46.9873C66.6431 46.9873 66.5509 47.009 66.4768 47.0522C66.4039 47.0944 66.3492 47.1536 66.3127 47.23C66.2763 47.3063 66.2581 47.394 66.2581 47.4932H65.9419C65.9419 47.353 65.9727 47.2249 66.0342 47.1086C66.0957 46.9924 66.1868 46.9001 66.3076 46.8318C66.4284 46.7623 66.5771 46.7275 66.7537 46.7275C66.9109 46.7275 67.0453 46.7555 67.157 46.8113C67.2686 46.866 67.3541 46.9434 67.4133 47.0437C67.4737 47.1428 67.5039 47.259 67.5039 47.3923C67.5039 47.4653 67.4914 47.5393 67.4663 47.6145C67.4424 47.6886 67.4088 47.7626 67.3655 47.8367C67.3233 47.9107 67.2738 47.9836 67.2168 48.0554C67.161 48.1272 67.1012 48.1978 67.0374 48.2673L66.3708 48.9902H67.6184ZM69.5872 48.9902V49.25H67.9585V49.0227L68.7737 48.1152C68.8739 48.0036 68.9514 47.909 69.0061 47.8315C69.0619 47.7529 69.1007 47.6829 69.1223 47.6213C69.1451 47.5587 69.1565 47.4949 69.1565 47.4299C69.1565 47.3479 69.1394 47.2738 69.1052 47.2078C69.0722 47.1405 69.0232 47.087 68.9583 47.0471C68.8933 47.0072 68.8147 46.9873 68.7224 46.9873C68.6119 46.9873 68.5196 47.009 68.4456 47.0522C68.3726 47.0944 68.318 47.1536 68.2815 47.23C68.245 47.3063 68.2268 47.394 68.2268 47.4932H67.9106C67.9106 47.353 67.9414 47.2249 68.0029 47.1086C68.0645 46.9924 68.1556 46.9001 68.2764 46.8318C68.3971 46.7623 68.5458 46.7275 68.7224 46.7275C68.8796 46.7275 69.0141 46.7555 69.1257 46.8113C69.2374 46.866 69.3228 46.9434 69.3821 47.0437C69.4425 47.1428 69.4727 47.259 69.4727 47.3923C69.4727 47.4653 69.4601 47.5393 69.4351 47.6145C69.4111 47.6886 69.3775 47.7626 69.3342 47.8367C69.2921 47.9107 69.2425 47.9836 69.1855 48.0554C69.1297 48.1272 69.0699 48.1978 69.0061 48.2673L68.3396 48.9902H69.5872Z" fill="#3958AC"/>
<path d="M75.6184 48.9902V49.25H73.9897V49.0227L74.8049 48.1152C74.9052 48.0036 74.9827 47.909 75.0374 47.8315C75.0932 47.7529 75.1319 47.6829 75.1536 47.6213C75.1764 47.5587 75.1877 47.4949 75.1877 47.4299C75.1877 47.3479 75.1707 47.2738 75.1365 47.2078C75.1034 47.1405 75.0544 47.087 74.9895 47.0471C74.9246 47.0072 74.8459 46.9873 74.7537 46.9873C74.6431 46.9873 74.5509 47.009 74.4768 47.0522C74.4039 47.0944 74.3492 47.1536 74.3127 47.23C74.2763 47.3063 74.2581 47.394 74.2581 47.4932H73.9419C73.9419 47.353 73.9727 47.2249 74.0342 47.1086C74.0957 46.9924 74.1868 46.9001 74.3076 46.8318C74.4284 46.7623 74.5771 46.7275 74.7537 46.7275C74.9109 46.7275 75.0453 46.7555 75.157 46.8113C75.2686 46.866 75.3541 46.9434 75.4133 47.0437C75.4737 47.1428 75.5039 47.259 75.5039 47.3923C75.5039 47.4653 75.4914 47.5393 75.4663 47.6145C75.4424 47.6886 75.4088 47.7626 75.3655 47.8367C75.3233 47.9107 75.2738 47.9836 75.2168 48.0554C75.161 48.1272 75.1012 48.1978 75.0374 48.2673L74.3708 48.9902H75.6184ZM76.4182 47.8503H76.6438C76.7543 47.8503 76.8455 47.8321 76.9172 47.7957C76.9902 47.7581 77.0443 47.7074 77.0796 47.6436C77.116 47.5786 77.1343 47.5057 77.1343 47.4248C77.1343 47.3291 77.1183 47.2488 77.0864 47.1838C77.0545 47.1189 77.0067 47.0699 76.9429 47.0369C76.8791 47.0038 76.7982 46.9873 76.7002 46.9873C76.6113 46.9873 76.5327 47.005 76.4644 47.0403C76.3971 47.0745 76.3442 47.1235 76.3054 47.1873C76.2678 47.2511 76.249 47.3263 76.249 47.4128H75.9329C75.9329 47.2864 75.9648 47.1713 76.0286 47.0676C76.0924 46.9639 76.1818 46.8813 76.2969 46.8198C76.4131 46.7583 76.5475 46.7275 76.7002 46.7275C76.8506 46.7275 76.9822 46.7543 77.095 46.8079C77.2078 46.8603 77.2955 46.9389 77.3582 47.0437C77.4208 47.1474 77.4521 47.2767 77.4521 47.4316C77.4521 47.4943 77.4373 47.5615 77.4077 47.6333C77.3792 47.7039 77.3342 47.77 77.2727 47.8315C77.2123 47.8931 77.1337 47.9438 77.0369 47.9836C76.94 48.0224 76.8238 48.0417 76.6882 48.0417H76.4182V47.8503ZM76.4182 48.1101V47.9204H76.6882C76.8466 47.9204 76.9776 47.9392 77.0813 47.9768C77.185 48.0144 77.2664 48.0645 77.3257 48.1272C77.3861 48.1899 77.4282 48.2588 77.4521 48.334C77.4772 48.408 77.4897 48.4821 77.4897 48.5562C77.4897 48.6724 77.4698 48.7755 77.4299 48.8655C77.3912 48.9555 77.3359 49.0318 77.2642 49.0945C77.1935 49.1571 77.1104 49.2044 77.0146 49.2363C76.9189 49.2682 76.8147 49.2842 76.7019 49.2842C76.5937 49.2842 76.4917 49.2688 76.396 49.238C76.3014 49.2073 76.2177 49.1628 76.1448 49.1047C76.0719 49.0455 76.0149 48.9731 75.9739 48.8877C75.9329 48.8011 75.9124 48.7026 75.9124 48.592H76.2285C76.2285 48.6786 76.2473 48.7544 76.2849 48.8193C76.3236 48.8843 76.3783 48.935 76.449 48.9714C76.5208 49.0068 76.6051 49.0244 76.7019 49.0244C76.7987 49.0244 76.8819 49.0079 76.9514 48.9749C77.0221 48.9407 77.0762 48.8894 77.1138 48.821C77.1525 48.7527 77.1719 48.6667 77.1719 48.563C77.1719 48.4593 77.1502 48.3744 77.1069 48.3083C77.0636 48.2411 77.0021 48.1916 76.9224 48.1597C76.8438 48.1266 76.7509 48.1101 76.6438 48.1101H76.4182Z" fill="#3958AC"/>
<path d="M27.6184 56.9902V57.25H25.9897V57.0227L26.8049 56.1152C26.9052 56.0036 26.9827 55.909 27.0374 55.8315C27.0932 55.7529 27.1319 55.6829 27.1536 55.6213C27.1764 55.5587 27.1877 55.4949 27.1877 55.4299C27.1877 55.3479 27.1707 55.2738 27.1365 55.2078C27.1034 55.1405 27.0544 55.087 26.9895 55.0471C26.9246 55.0072 26.8459 54.9873 26.7537 54.9873C26.6431 54.9873 26.5509 55.009 26.4768 55.0522C26.4039 55.0944 26.3492 55.1536 26.3127 55.23C26.2763 55.3063 26.2581 55.394 26.2581 55.4932H25.9419C25.9419 55.353 25.9727 55.2249 26.0342 55.1086C26.0957 54.9924 26.1868 54.9001 26.3076 54.8318C26.4284 54.7623 26.5771 54.7275 26.7537 54.7275C26.9109 54.7275 27.0453 54.7555 27.157 54.8113C27.2686 54.866 27.3541 54.9434 27.4133 55.0437C27.4737 55.1428 27.5039 55.259 27.5039 55.3923C27.5039 55.4653 27.4914 55.5393 27.4663 55.6145C27.4424 55.6886 27.4088 55.7626 27.3655 55.8367C27.3233 55.9107 27.2738 55.9836 27.2168 56.0554C27.161 56.1272 27.1012 56.1978 27.0374 56.2673L26.3708 56.9902H27.6184ZM29.6384 56.4126V56.6724H27.8406V56.4861L28.9548 54.7617H29.2129L28.936 55.2607L28.1995 56.4126H29.6384ZM29.2915 54.7617V57.25H28.9753V54.7617H29.2915Z" fill="#3958AC"/>
<path d="M35.6184 56.9902V57.25H33.9897V57.0227L34.8049 56.1152C34.9052 56.0036 34.9827 55.909 35.0374 55.8315C35.0932 55.7529 35.1319 55.6829 35.1536 55.6213C35.1764 55.5587 35.1877 55.4949 35.1877 55.4299C35.1877 55.3479 35.1707 55.2738 35.1365 55.2078C35.1034 55.1405 35.0544 55.087 34.9895 55.0471C34.9246 55.0072 34.8459 54.9873 34.7537 54.9873C34.6431 54.9873 34.5509 55.009 34.4768 55.0522C34.4039 55.0944 34.3492 55.1536 34.3127 55.23C34.2763 55.3063 34.2581 55.394 34.2581 55.4932H33.9419C33.9419 55.353 33.9727 55.2249 34.0342 55.1086C34.0957 54.9924 34.1868 54.9001 34.3076 54.8318C34.4284 54.7623 34.5771 54.7275 34.7537 54.7275C34.9109 54.7275 35.0453 54.7555 35.157 54.8113C35.2686 54.866 35.3541 54.9434 35.4133 55.0437C35.4737 55.1428 35.5039 55.259 35.5039 55.3923C35.5039 55.4653 35.4914 55.5393 35.4663 55.6145C35.4424 55.6886 35.4088 55.7626 35.3655 55.8367C35.3233 55.9107 35.2738 55.9836 35.2168 56.0554C35.161 56.1272 35.1012 56.1978 35.0374 56.2673L34.3708 56.9902H35.6184ZM36.3567 56.0657L36.1038 56.0007L36.2285 54.7617H37.5051V55.054H36.4968L36.4216 55.7307C36.4672 55.7045 36.5247 55.68 36.5942 55.6572C36.6649 55.6344 36.7458 55.623 36.8369 55.623C36.952 55.623 37.0551 55.643 37.1462 55.6829C37.2374 55.7216 37.3149 55.7774 37.3787 55.8503C37.4436 55.9233 37.4932 56.011 37.5273 56.1135C37.5615 56.2161 37.5786 56.3306 37.5786 56.457C37.5786 56.5767 37.5621 56.6866 37.5291 56.7869C37.4972 56.8871 37.4487 56.9749 37.3838 57.05C37.3188 57.1241 37.2368 57.1816 37.1377 57.2227C37.0397 57.2637 36.9241 57.2842 36.7908 57.2842C36.6905 57.2842 36.5954 57.2705 36.5054 57.2432C36.4165 57.2147 36.3368 57.172 36.2661 57.115C36.1966 57.0569 36.1396 56.9851 36.0952 56.8997C36.0519 56.8131 36.0246 56.7117 36.0132 56.5955H36.314C36.3276 56.6889 36.355 56.7675 36.396 56.8313C36.437 56.8951 36.4906 56.9435 36.5566 56.9766C36.6239 57.0085 36.7019 57.0244 36.7908 57.0244C36.866 57.0244 36.9326 57.0113 36.9907 56.9851C37.0488 56.9589 37.0978 56.9213 37.1377 56.8723C37.1776 56.8233 37.2078 56.7641 37.2283 56.6946C37.2499 56.6251 37.2607 56.547 37.2607 56.4604C37.2607 56.3818 37.2499 56.3089 37.2283 56.2417C37.2066 56.1745 37.1742 56.1158 37.1309 56.0657C37.0887 56.0155 37.0369 55.9768 36.9753 55.9495C36.9138 55.921 36.8432 55.9067 36.7634 55.9067C36.6575 55.9067 36.5771 55.921 36.5225 55.9495C36.4689 55.9779 36.4137 56.0167 36.3567 56.0657Z" fill="#3958AC"/>
<path d="M43.6184 56.9902V57.25H41.9897V57.0227L42.8049 56.1152C42.9052 56.0036 42.9827 55.909 43.0374 55.8315C43.0932 55.7529 43.1319 55.6829 43.1536 55.6213C43.1764 55.5587 43.1877 55.4949 43.1877 55.4299C43.1877 55.3479 43.1707 55.2738 43.1365 55.2078C43.1034 55.1405 43.0544 55.087 42.9895 55.0471C42.9246 55.0072 42.8459 54.9873 42.7537 54.9873C42.6431 54.9873 42.5509 55.009 42.4768 55.0522C42.4039 55.0944 42.3492 55.1536 42.3127 55.23C42.2763 55.3063 42.2581 55.394 42.2581 55.4932H41.9419C41.9419 55.353 41.9727 55.2249 42.0342 55.1086C42.0957 54.9924 42.1868 54.9001 42.3076 54.8318C42.4284 54.7623 42.5771 54.7275 42.7537 54.7275C42.9109 54.7275 43.0453 54.7555 43.157 54.8113C43.2686 54.866 43.3541 54.9434 43.4133 55.0437C43.4737 55.1428 43.5039 55.259 43.5039 55.3923C43.5039 55.4653 43.4914 55.5393 43.4663 55.6145C43.4424 55.6886 43.4088 55.7626 43.3655 55.8367C43.3233 55.9107 43.2738 55.9836 43.2168 56.0554C43.161 56.1272 43.1012 56.1978 43.0374 56.2673L42.3708 56.9902H43.6184ZM45.1702 54.7583H45.1975V55.0266H45.1702C45.0027 55.0266 44.8625 55.054 44.7498 55.1086C44.637 55.1622 44.5475 55.2345 44.4814 55.3257C44.4154 55.4157 44.3675 55.5171 44.3379 55.6299C44.3094 55.7427 44.2952 55.8572 44.2952 55.9734V56.3391C44.2952 56.4496 44.3083 56.5476 44.3345 56.6331C44.3607 56.7174 44.3966 56.7886 44.4421 56.8467C44.4877 56.9048 44.539 56.9486 44.5959 56.9783C44.6541 57.0079 44.7144 57.0227 44.7771 57.0227C44.85 57.0227 44.915 57.009 44.9719 56.9817C45.0289 56.9532 45.0767 56.9139 45.1155 56.8638C45.1554 56.8125 45.1855 56.7521 45.2061 56.6826C45.2266 56.6131 45.2368 56.5368 45.2368 56.4536C45.2368 56.3796 45.2277 56.3083 45.2095 56.24C45.1912 56.1705 45.1633 56.109 45.1257 56.0554C45.0881 56.0007 45.0409 55.958 44.9839 55.9272C44.9281 55.8953 44.8614 55.8794 44.7839 55.8794C44.6962 55.8794 44.6142 55.901 44.5378 55.9443C44.4626 55.9865 44.4006 56.0423 44.3516 56.1118C44.3037 56.1802 44.2764 56.2548 44.2695 56.3357L44.1021 56.334C44.118 56.2064 44.1476 56.0976 44.1909 56.0076C44.2354 55.9164 44.29 55.8424 44.355 55.7854C44.4211 55.7273 44.4945 55.6851 44.5754 55.6589C44.6575 55.6316 44.7441 55.6179 44.8352 55.6179C44.9594 55.6179 45.0665 55.6413 45.1565 55.688C45.2465 55.7347 45.3206 55.7974 45.3787 55.876C45.4368 55.9535 45.4795 56.0412 45.5068 56.1392C45.5353 56.236 45.5496 56.3357 45.5496 56.4382C45.5496 56.5556 45.533 56.6655 45.5 56.7681C45.467 56.8706 45.4174 56.9606 45.3513 57.0381C45.2864 57.1156 45.2061 57.1759 45.1104 57.2192C45.0146 57.2625 44.9036 57.2842 44.7771 57.2842C44.6427 57.2842 44.5253 57.2568 44.425 57.2021C44.3248 57.1463 44.2416 57.0723 44.1755 56.98C44.1095 56.8877 44.0599 56.7852 44.0269 56.6724C43.9938 56.5596 43.9773 56.4451 43.9773 56.3289V56.1802C43.9773 56.0047 43.995 55.8327 44.0303 55.6641C44.0656 55.4954 44.1265 55.3428 44.2131 55.2061C44.3009 55.0693 44.4222 54.9605 44.5771 54.8796C44.7321 54.7987 44.9298 54.7583 45.1702 54.7583Z" fill="#3958AC"/>
<path d="M51.6184 56.9902V57.25H49.9897V57.0227L50.8049 56.1152C50.9052 56.0036 50.9827 55.909 51.0374 55.8315C51.0932 55.7529 51.1319 55.6829 51.1536 55.6213C51.1764 55.5587 51.1877 55.4949 51.1877 55.4299C51.1877 55.3479 51.1707 55.2738 51.1365 55.2078C51.1034 55.1405 51.0544 55.087 50.9895 55.0471C50.9246 55.0072 50.8459 54.9873 50.7537 54.9873C50.6431 54.9873 50.5509 55.009 50.4768 55.0522C50.4039 55.0944 50.3492 55.1536 50.3127 55.23C50.2763 55.3063 50.2581 55.394 50.2581 55.4932H49.9419C49.9419 55.353 49.9727 55.2249 50.0342 55.1086C50.0957 54.9924 50.1868 54.9001 50.3076 54.8318C50.4284 54.7623 50.5771 54.7275 50.7537 54.7275C50.9109 54.7275 51.0453 54.7555 51.157 54.8113C51.2686 54.866 51.3541 54.9434 51.4133 55.0437C51.4737 55.1428 51.5039 55.259 51.5039 55.3923C51.5039 55.4653 51.4914 55.5393 51.4663 55.6145C51.4424 55.6886 51.4088 55.7626 51.3655 55.8367C51.3233 55.9107 51.2738 55.9836 51.2168 56.0554C51.161 56.1272 51.1012 56.1978 51.0374 56.2673L50.3708 56.9902H51.6184ZM53.5649 54.7617V54.9395L52.5344 57.25H52.2012L53.23 55.0215H51.8833V54.7617H53.5649Z" fill="#3958AC"/>
<path d="M59.6184 56.9902V57.25H57.9897V57.0227L58.8049 56.1152C58.9052 56.0036 58.9827 55.909 59.0374 55.8315C59.0932 55.7529 59.1319 55.6829 59.1536 55.6213C59.1764 55.5587 59.1877 55.4949 59.1877 55.4299C59.1877 55.3479 59.1707 55.2738 59.1365 55.2078C59.1034 55.1405 59.0544 55.087 58.9895 55.0471C58.9246 55.0072 58.8459 54.9873 58.7537 54.9873C58.6431 54.9873 58.5509 55.009 58.4768 55.0522C58.4039 55.0944 58.3492 55.1536 58.3127 55.23C58.2763 55.3063 58.2581 55.394 58.2581 55.4932H57.9419C57.9419 55.353 57.9727 55.2249 58.0342 55.1086C58.0957 54.9924 58.1868 54.9001 58.3076 54.8318C58.4284 54.7623 58.5771 54.7275 58.7537 54.7275C58.9109 54.7275 59.0453 54.7555 59.157 54.8113C59.2686 54.866 59.3541 54.9434 59.4133 55.0437C59.4737 55.1428 59.5039 55.259 59.5039 55.3923C59.5039 55.4653 59.4914 55.5393 59.4663 55.6145C59.4424 55.6886 59.4088 55.7626 59.3655 55.8367C59.3233 55.9107 59.2738 55.9836 59.2168 56.0554C59.161 56.1272 59.1012 56.1978 59.0374 56.2673L58.3708 56.9902H59.6184ZM61.5256 56.5767C61.5256 56.7282 61.4903 56.8569 61.4197 56.9629C61.3502 57.0677 61.2556 57.1475 61.136 57.2021C61.0175 57.2568 60.8836 57.2842 60.7344 57.2842C60.5851 57.2842 60.4507 57.2568 60.3311 57.2021C60.2114 57.1475 60.1169 57.0677 60.0474 56.9629C59.9779 56.8569 59.9431 56.7282 59.9431 56.5767C59.9431 56.4775 59.9619 56.387 59.9995 56.3049C60.0382 56.2218 60.0924 56.1494 60.1619 56.0879C60.2325 56.0264 60.3157 55.9791 60.4114 55.946C60.5082 55.9119 60.6147 55.8948 60.731 55.8948C60.8836 55.8948 61.0198 55.9244 61.1394 55.9836C61.259 56.0417 61.353 56.1221 61.4214 56.2246C61.4909 56.3271 61.5256 56.4445 61.5256 56.5767ZM61.2078 56.5698C61.2078 56.4775 61.1878 56.3961 61.1479 56.3254C61.1081 56.2537 61.0522 56.1978 60.9805 56.158C60.9087 56.1181 60.8255 56.0981 60.731 56.0981C60.6341 56.0981 60.5504 56.1181 60.4797 56.158C60.4102 56.1978 60.3561 56.2537 60.3174 56.3254C60.2786 56.3961 60.2593 56.4775 60.2593 56.5698C60.2593 56.6655 60.2781 56.7476 60.3157 56.8159C60.3544 56.8831 60.4091 56.935 60.4797 56.9714C60.5515 57.0068 60.6364 57.0244 60.7344 57.0244C60.8324 57.0244 60.9167 57.0068 60.9873 56.9714C61.0579 56.935 61.1121 56.8831 61.1497 56.8159C61.1884 56.7476 61.2078 56.6655 61.2078 56.5698ZM61.4675 55.4094C61.4675 55.5302 61.4356 55.639 61.3718 55.7358C61.308 55.8327 61.2209 55.909 61.1104 55.9648C60.9998 56.0207 60.8745 56.0486 60.7344 56.0486C60.592 56.0486 60.4649 56.0207 60.3533 55.9648C60.2428 55.909 60.1562 55.8327 60.0935 55.7358C60.0308 55.639 59.9995 55.5302 59.9995 55.4094C59.9995 55.2647 60.0308 55.1417 60.0935 55.0403C60.1573 54.9389 60.2445 54.8614 60.355 54.8079C60.4655 54.7543 60.5914 54.7275 60.7327 54.7275C60.8751 54.7275 61.0015 54.7543 61.1121 54.8079C61.2226 54.8614 61.3092 54.9389 61.3718 55.0403C61.4356 55.1417 61.4675 55.2647 61.4675 55.4094ZM61.1514 55.4146C61.1514 55.3314 61.1337 55.2579 61.0984 55.1941C61.0631 55.1303 61.0141 55.0802 60.9514 55.0437C60.8888 55.0061 60.8158 54.9873 60.7327 54.9873C60.6495 54.9873 60.5766 55.005 60.5139 55.0403C60.4524 55.0745 60.404 55.1235 60.3687 55.1873C60.3345 55.2511 60.3174 55.3268 60.3174 55.4146C60.3174 55.5 60.3345 55.5746 60.3687 55.6384C60.404 55.7022 60.453 55.7518 60.5156 55.7871C60.5783 55.8224 60.6512 55.8401 60.7344 55.8401C60.8175 55.8401 60.8899 55.8224 60.9514 55.7871C61.0141 55.7518 61.0631 55.7022 61.0984 55.6384C61.1337 55.5746 61.1514 55.5 61.1514 55.4146Z" fill="#3958AC"/>
<path d="M67.6184 56.9902V57.25H65.9897V57.0227L66.8049 56.1152C66.9052 56.0036 66.9827 55.909 67.0374 55.8315C67.0932 55.7529 67.1319 55.6829 67.1536 55.6213C67.1764 55.5587 67.1877 55.4949 67.1877 55.4299C67.1877 55.3479 67.1707 55.2738 67.1365 55.2078C67.1034 55.1405 67.0544 55.087 66.9895 55.0471C66.9246 55.0072 66.8459 54.9873 66.7537 54.9873C66.6431 54.9873 66.5509 55.009 66.4768 55.0522C66.4039 55.0944 66.3492 55.1536 66.3127 55.23C66.2763 55.3063 66.2581 55.394 66.2581 55.4932H65.9419C65.9419 55.353 65.9727 55.2249 66.0342 55.1086C66.0957 54.9924 66.1868 54.9001 66.3076 54.8318C66.4284 54.7623 66.5771 54.7275 66.7537 54.7275C66.9109 54.7275 67.0453 54.7555 67.157 54.8113C67.2686 54.866 67.3541 54.9434 67.4133 55.0437C67.4737 55.1428 67.5039 55.259 67.5039 55.3923C67.5039 55.4653 67.4914 55.5393 67.4663 55.6145C67.4424 55.6886 67.4088 55.7626 67.3655 55.8367C67.3233 55.9107 67.2738 55.9836 67.2168 56.0554C67.161 56.1272 67.1012 56.1978 67.0374 56.2673L66.3708 56.9902H67.6184ZM68.2712 56.9851H68.3037C68.486 56.9851 68.6341 56.9595 68.748 56.9082C68.862 56.8569 68.9497 56.788 69.0112 56.7014C69.0728 56.6148 69.1149 56.5174 69.1377 56.4092C69.1605 56.2998 69.1719 56.1876 69.1719 56.0725V55.6914C69.1719 55.5786 69.1588 55.4784 69.1326 55.3906C69.1075 55.3029 69.0722 55.2294 69.0266 55.1702C68.9822 55.1109 68.9315 55.0659 68.8745 55.0352C68.8175 55.0044 68.7572 54.989 68.6934 54.989C68.6204 54.989 68.5549 55.0038 68.4968 55.0334C68.4399 55.0619 68.3914 55.1024 68.3516 55.1548C68.3128 55.2072 68.2832 55.2687 68.2627 55.3394C68.2422 55.41 68.2319 55.4869 68.2319 55.5701C68.2319 55.6441 68.241 55.7159 68.2593 55.7854C68.2775 55.8549 68.3054 55.9176 68.343 55.9734C68.3806 56.0292 68.4273 56.0736 68.4832 56.1067C68.5401 56.1386 68.6068 56.1545 68.6831 56.1545C68.7537 56.1545 68.8198 56.1409 68.8813 56.1135C68.944 56.085 68.9993 56.0469 69.0471 55.999C69.0961 55.95 69.1348 55.8948 69.1633 55.8333C69.193 55.7717 69.21 55.7074 69.2146 55.6401H69.365C69.365 55.7347 69.3462 55.8281 69.3086 55.9204C69.2721 56.0116 69.2209 56.0947 69.1548 56.1699C69.0887 56.2451 69.0112 56.3055 68.9224 56.3511C68.8335 56.3955 68.7367 56.4177 68.6318 56.4177C68.5088 56.4177 68.4023 56.3938 68.3123 56.3459C68.2222 56.2981 68.1482 56.2343 68.0901 56.1545C68.0331 56.0748 67.9904 55.9859 67.9619 55.8879C67.9346 55.7888 67.9209 55.6886 67.9209 55.5872C67.9209 55.4687 67.9374 55.3576 67.9705 55.2539C68.0035 55.1502 68.0525 55.0591 68.1174 54.9805C68.1824 54.9007 68.2627 54.8386 68.3584 54.7942C68.4552 54.7498 68.5669 54.7275 68.6934 54.7275C68.8358 54.7275 68.9571 54.756 69.0574 54.813C69.1576 54.87 69.2391 54.9463 69.3018 55.042C69.3656 55.1377 69.4123 55.2454 69.4419 55.365C69.4715 55.4846 69.4863 55.6077 69.4863 55.7341V55.8486C69.4863 55.9774 69.4778 56.1084 69.4607 56.2417C69.4447 56.3739 69.4134 56.5003 69.3667 56.6211C69.3211 56.7419 69.2545 56.8501 69.1667 56.9458C69.079 57.0404 68.9645 57.1156 68.8232 57.1714C68.6831 57.2261 68.5099 57.2534 68.3037 57.2534H68.2712V56.9851Z" fill="#3958AC"/>
<path d="M74.4495 55.8503H74.675C74.7856 55.8503 74.8767 55.8321 74.9485 55.7957C75.0214 55.7581 75.0755 55.7074 75.1108 55.6436C75.1473 55.5786 75.1655 55.5057 75.1655 55.4248C75.1655 55.3291 75.1496 55.2488 75.1177 55.1838C75.0858 55.1189 75.0379 55.0699 74.9741 55.0369C74.9103 55.0038 74.8294 54.9873 74.7314 54.9873C74.6426 54.9873 74.564 55.005 74.4956 55.0403C74.4284 55.0745 74.3754 55.1235 74.3367 55.1873C74.2991 55.2511 74.2803 55.3263 74.2803 55.4128H73.9641C73.9641 55.2864 73.996 55.1713 74.0598 55.0676C74.1236 54.9639 74.2131 54.8813 74.3281 54.8198C74.4443 54.7583 74.5788 54.7275 74.7314 54.7275C74.8818 54.7275 75.0134 54.7543 75.1262 54.8079C75.239 54.8603 75.3267 54.9389 75.3894 55.0437C75.4521 55.1474 75.4834 55.2767 75.4834 55.4316C75.4834 55.4943 75.4686 55.5615 75.439 55.6333C75.4105 55.7039 75.3655 55.77 75.304 55.8315C75.2436 55.8931 75.165 55.9438 75.0681 55.9836C74.9713 56.0224 74.8551 56.0417 74.7195 56.0417H74.4495V55.8503ZM74.4495 56.1101V55.9204H74.7195C74.8778 55.9204 75.0089 55.9392 75.1125 55.9768C75.2162 56.0144 75.2977 56.0645 75.3569 56.1272C75.4173 56.1899 75.4595 56.2588 75.4834 56.334C75.5085 56.408 75.521 56.4821 75.521 56.5562C75.521 56.6724 75.5011 56.7755 75.4612 56.8655C75.4224 56.9555 75.3672 57.0318 75.2954 57.0945C75.2248 57.1571 75.1416 57.2044 75.0459 57.2363C74.9502 57.2682 74.8459 57.2842 74.7332 57.2842C74.6249 57.2842 74.5229 57.2688 74.4272 57.238C74.3327 57.2073 74.2489 57.1628 74.176 57.1047C74.1031 57.0455 74.0461 56.9731 74.0051 56.8877C73.9641 56.8011 73.9436 56.7026 73.9436 56.592H74.2598C74.2598 56.6786 74.2786 56.7544 74.3162 56.8193C74.3549 56.8843 74.4096 56.935 74.4802 56.9714C74.552 57.0068 74.6363 57.0244 74.7332 57.0244C74.83 57.0244 74.9132 57.0079 74.9827 56.9749C75.0533 56.9407 75.1074 56.8894 75.145 56.821C75.1838 56.7527 75.2031 56.6667 75.2031 56.563C75.2031 56.4593 75.1815 56.3744 75.1382 56.3083C75.0949 56.2411 75.0334 56.1916 74.9536 56.1597C74.875 56.1266 74.7821 56.1101 74.675 56.1101H74.4495ZM77.5188 55.8076V56.187C77.5188 56.391 77.5006 56.563 77.4641 56.7031C77.4277 56.8433 77.3752 56.9561 77.3069 57.0415C77.2385 57.127 77.1559 57.189 77.0591 57.2278C76.9634 57.2654 76.8551 57.2842 76.7344 57.2842C76.6387 57.2842 76.5504 57.2722 76.4695 57.2483C76.3886 57.2244 76.3157 57.1862 76.2507 57.1338C76.1869 57.0802 76.1322 57.0107 76.0867 56.9253C76.0411 56.8398 76.0063 56.7362 75.9824 56.6143C75.9585 56.4924 75.9465 56.3499 75.9465 56.187V55.8076C75.9465 55.6037 75.9648 55.4328 76.0012 55.2949C76.0388 55.1571 76.0918 55.0465 76.1602 54.9634C76.2285 54.8791 76.3105 54.8187 76.4062 54.7822C76.5031 54.7458 76.6113 54.7275 76.731 54.7275C76.8278 54.7275 76.9167 54.7395 76.9976 54.7634C77.0796 54.7862 77.1525 54.8232 77.2163 54.8745C77.2801 54.9246 77.3342 54.9919 77.3787 55.0762C77.4242 55.1593 77.459 55.2613 77.4829 55.3821C77.5068 55.5028 77.5188 55.6447 77.5188 55.8076ZM77.2009 56.2383V55.7546C77.2009 55.643 77.1941 55.545 77.1804 55.4607C77.1679 55.3752 77.1491 55.3023 77.124 55.2419C77.099 55.1816 77.0671 55.1326 77.0283 55.095C76.9907 55.0574 76.9469 55.03 76.8967 55.0129C76.8477 54.9947 76.7925 54.9856 76.731 54.9856C76.6558 54.9856 76.5891 54.9998 76.531 55.0283C76.4729 55.0557 76.4239 55.0995 76.384 55.1599C76.3453 55.2203 76.3157 55.2995 76.2952 55.3975C76.2747 55.4954 76.2644 55.6145 76.2644 55.7546V56.2383C76.2644 56.3499 76.2707 56.4485 76.2832 56.5339C76.2969 56.6194 76.3168 56.6934 76.343 56.7561C76.3692 56.8176 76.4011 56.8683 76.4387 56.9082C76.4763 56.9481 76.5196 56.9777 76.5686 56.9971C76.6187 57.0153 76.674 57.0244 76.7344 57.0244C76.8118 57.0244 76.8796 57.0096 76.9377 56.98C76.9958 56.9504 77.0443 56.9042 77.083 56.8416C77.1229 56.7778 77.1525 56.6963 77.1719 56.5972C77.1912 56.4969 77.2009 56.3773 77.2009 56.2383Z" fill="#3958AC"/>
<path d="M26.4495 63.8503H26.675C26.7856 63.8503 26.8767 63.8321 26.9485 63.7957C27.0214 63.7581 27.0755 63.7074 27.1108 63.6436C27.1473 63.5786 27.1655 63.5057 27.1655 63.4248C27.1655 63.3291 27.1496 63.2488 27.1177 63.1838C27.0858 63.1189 27.0379 63.0699 26.9741 63.0369C26.9103 63.0038 26.8294 62.9873 26.7314 62.9873C26.6426 62.9873 26.564 63.005 26.4956 63.0403C26.4284 63.0745 26.3754 63.1235 26.3367 63.1873C26.2991 63.2511 26.2803 63.3263 26.2803 63.4128H25.9641C25.9641 63.2864 25.996 63.1713 26.0598 63.0676C26.1236 62.9639 26.2131 62.8813 26.3281 62.8198C26.4443 62.7583 26.5788 62.7275 26.7314 62.7275C26.8818 62.7275 27.0134 62.7543 27.1262 62.8079C27.239 62.8603 27.3267 62.9389 27.3894 63.0437C27.4521 63.1474 27.4834 63.2767 27.4834 63.4316C27.4834 63.4943 27.4686 63.5615 27.439 63.6333C27.4105 63.7039 27.3655 63.77 27.304 63.8315C27.2436 63.8931 27.165 63.9438 27.0681 63.9836C26.9713 64.0224 26.8551 64.0417 26.7195 64.0417H26.4495V63.8503ZM26.4495 64.1101V63.9204H26.7195C26.8778 63.9204 27.0089 63.9392 27.1125 63.9768C27.2162 64.0144 27.2977 64.0645 27.3569 64.1272C27.4173 64.1899 27.4595 64.2588 27.4834 64.334C27.5085 64.408 27.521 64.4821 27.521 64.5562C27.521 64.6724 27.5011 64.7755 27.4612 64.8655C27.4224 64.9555 27.3672 65.0318 27.2954 65.0945C27.2248 65.1571 27.1416 65.2044 27.0459 65.2363C26.9502 65.2682 26.8459 65.2842 26.7332 65.2842C26.6249 65.2842 26.5229 65.2688 26.4272 65.238C26.3327 65.2073 26.2489 65.1628 26.176 65.1047C26.1031 65.0455 26.0461 64.9731 26.0051 64.8877C25.9641 64.8011 25.9436 64.7026 25.9436 64.592H26.2598C26.2598 64.6786 26.2786 64.7544 26.3162 64.8193C26.3549 64.8843 26.4096 64.935 26.4802 64.9714C26.552 65.0068 26.6363 65.0244 26.7332 65.0244C26.83 65.0244 26.9132 65.0079 26.9827 64.9749C27.0533 64.9407 27.1074 64.8894 27.145 64.821C27.1838 64.7527 27.2031 64.6667 27.2031 64.563C27.2031 64.4593 27.1815 64.3744 27.1382 64.3083C27.0949 64.2411 27.0334 64.1916 26.9536 64.1597C26.875 64.1266 26.7821 64.1101 26.675 64.1101H26.4495ZM28.9958 62.748V65.25H28.6797V63.1428L28.0422 63.3752V63.0898L28.9463 62.748H28.9958Z" fill="#3958AC"/>
</g>
</g>
</g>
<rect x="2.125" y="8.125" width="81.75" height="59.75" rx="0.875" stroke="#C2D1EB" stroke-width="0.25"/>
</g>
<rect x="2" y="0.5" width="43.75" height="7.5" rx="1" stroke="#C2D1EB"/>
<g clip-path="url(#clip6_14396_149324)">
<g clip-path="url(#clip7_14396_149324)">
<path d="M2 1.5C2 0.947715 2.44772 0.5 3 0.5H38.25V8H3C2.44772 8 2 7.55228 2 7V1.5Z" fill="white"/>
<rect x="5" y="3.5" width="3.75" height="1.5" rx="0.75" fill="#5473C8"/>
<path d="M11.3416 3.26172L10.3042 5.96362H10.0325L11.0715 3.26172H11.3416Z" fill="#3958AC"/>
<rect x="13.25" y="3.5" width="3.75" height="1.5" rx="0.75" fill="#5473C8"/>
<path d="M19.5916 3.26172L18.5542 5.96362H18.2825L19.3215 3.26172H19.5916Z" fill="#3958AC"/>
<rect x="21.5" y="3.5" width="3.75" height="1.5" rx="0.75" fill="#5473C8"/>
<path d="M36.5 3.35391L35.6039 4.25L36.5 5.14609L36.1461 5.5L35.25 4.60391L34.3539 5.5L34 5.14609L34.8961 4.25L34 3.35391L34.3539 3L35.25 3.89609L36.1461 3L36.5 3.35391Z" fill="#90ABDA"/>
</g>
<path d="M38.25 0.5H44.75C45.3023 0.5 45.75 0.947715 45.75 1.5V7C45.75 7.55228 45.3023 8 44.75 8H38.25V0.5Z" fill="#C2D1EB"/>
<path d="M43.7508 2.75V5.75078C43.7508 5.88828 43.6383 6.00078 43.5008 6.00078H40.5C40.3625 6.00078 40.25 5.88828 40.25 5.75078V2.75C40.25 2.6125 40.3625 2.5 40.5 2.5H41V2.25H41.5V2.5H42.5V2.25H43V2.5H43.5008C43.6383 2.5 43.7508 2.6125 43.7508 2.75ZM43.25 5.5V4.5H42.25V5.5H43.25ZM43.5 2.75H43V3H42.5V2.75H41.5V3H41V2.75H40.5008L40.5 2.75078V3.5H43.5008V2.75078L43.5 2.75ZM40.5 3.75V5.75L40.5008 5.75078L43.5008 5.75V3.75H40.5Z" fill="#5473C8"/>
</g>
<rect x="2.125" y="0.625" width="43.5" height="7.25" rx="0.875" stroke="#C2D1EB" stroke-width="0.25"/>
<defs>
<filter id="filter0_dd_14396_149324" x="0.75" y="7.5" width="84.5" height="62.75" filterUnits="userSpaceOnUse" color-interpolation-filters="sRGB">
<feFlood flood-opacity="0" result="BackgroundImageFix"/>
<feColorMatrix in="SourceAlpha" type="matrix" values="0 0 0 0 0 0 0 0 0 0 0 0 0 0 0 0 0 0 127 0" result="hardAlpha"/>
<feOffset dy="1"/>
<feGaussianBlur stdDeviation="0.625"/>
<feColorMatrix type="matrix" values="0 0 0 0 0.239216 0 0 0 0 0.341176 0 0 0 0 0.847059 0 0 0 0.04 0"/>
<feBlend mode="normal" in2="BackgroundImageFix" result="effect1_dropShadow_14396_149324"/>
<feColorMatrix in="SourceAlpha" type="matrix" values="0 0 0 0 0 0 0 0 0 0 0 0 0 0 0 0 0 0 127 0" result="hardAlpha"/>
<feOffset dy="0.5"/>
<feGaussianBlur stdDeviation="0.5"/>
<feColorMatrix type="matrix" values="0 0 0 0 0.239216 0 0 0 0 0.341176 0 0 0 0 0.847059 0 0 0 0.03 0"/>
<feBlend mode="normal" in2="effect1_dropShadow_14396_149324" result="effect2_dropShadow_14396_149324"/>
<feBlend mode="normal" in="SourceGraphic" in2="effect2_dropShadow_14396_149324" result="shape"/>
</filter>
<filter id="filter1_ii_14396_149324" x="2.25" y="36.0298" width="17.5" height="5.5166" filterUnits="userSpaceOnUse" color-interpolation-filters="sRGB">
<feFlood flood-opacity="0" result="BackgroundImageFix"/>
<feBlend mode="normal" in="SourceGraphic" in2="BackgroundImageFix" result="shape"/>
<feColorMatrix in="SourceAlpha" type="matrix" values="0 0 0 0 0 0 0 0 0 0 0 0 0 0 0 0 0 0 127 0" result="hardAlpha"/>
<feOffset dy="-0.25"/>
<feComposite in2="hardAlpha" operator="arithmetic" k2="-1" k3="1"/>
<feColorMatrix type="matrix" values="0 0 0 0 0.792157 0 0 0 0 0.839216 0 0 0 0 0.929412 0 0 0 1 0"/>
<feBlend mode="normal" in2="shape" result="effect1_innerShadow_14396_149324"/>
<feColorMatrix in="SourceAlpha" type="matrix" values="0 0 0 0 0 0 0 0 0 0 0 0 0 0 0 0 0 0 127 0" result="hardAlpha"/>
<feOffset dy="0.25"/>
<feComposite in2="hardAlpha" operator="arithmetic" k2="-1" k3="1"/>
<feColorMatrix type="matrix" values="0 0 0 0 0.792157 0 0 0 0 0.843137 0 0 0 0 0.929412 0 0 0 1 0"/>
<feBlend mode="normal" in2="effect1_innerShadow_14396_149324" result="effect2_innerShadow_14396_149324"/>
</filter>
<linearGradient id="paint0_linear_14396_149324" x1="19.75" y1="67.75" x2="19.75" y2="8.25" gradientUnits="userSpaceOnUse">
<stop stop-color="#FAFAFA"/>
<stop offset="0.497" stop-color="#FAFAFA" stop-opacity="0.01"/>
<stop offset="1" stop-color="#F6F6F6"/>
<stop offset="1" stop-color="#FAFAFA"/>
</linearGradient>
<clipPath id="clip0_14396_149324">
<rect x="2" y="8" width="82" height="60" rx="1" fill="white"/>
</clipPath>
<clipPath id="clip1_14396_149324">
<rect width="17.5" height="59.5" fill="white" transform="translate(2.25 8.25)"/>
</clipPath>
<clipPath id="clip2_14396_149324">
<rect width="17.25" height="59.106" fill="white" transform="translate(2.25 8.44702)"/>
</clipPath>
<clipPath id="clip3_14396_149324">
<rect width="17.25" height="75" fill="white" transform="translate(2.25 0.447021)"/>
</clipPath>
<clipPath id="clip4_14396_149324">
<rect width="64" height="48" fill="white" transform="translate(19.75 19.75)"/>
</clipPath>
<clipPath id="clip5_14396_149324">
<rect width="64" height="48" fill="white" transform="translate(19.75 19.75)"/>
</clipPath>
<clipPath id="clip6_14396_149324">
<rect x="2" y="0.5" width="43.75" height="7.5" rx="1" fill="white"/>
</clipPath>
<clipPath id="clip7_14396_149324">
<path d="M2 1.5C2 0.947715 2.44772 0.5 3 0.5H38.25V8H3C2.44772 8 2 7.55228 2 7V1.5Z" fill="white"/>
</clipPath>
</defs>
</svg>
