<svg xmlns="http://www.w3.org/2000/svg" width="19.996" height="19.655" viewBox="0 0 19.996 19.655"><path d="M9.34-17.207,1.215-14.16A1.878,1.878,0,0,0,0-12.4v8.793A1.874,1.874,0,0,0,1.035-1.934L9.16,2.129a1.862,1.862,0,0,0,1.676,0l8.125-4.062A1.871,1.871,0,0,0,20-3.609V-12.4a1.872,1.872,0,0,0-1.215-1.754L10.656-17.2A1.843,1.843,0,0,0,9.34-17.207ZM10-15.449,18.125-12.4v.012L10-9.09l-8.125-3.3V-12.4ZM1.875-10.367,9.062-7.445v7.43L1.875-3.609ZM10.937-.02V-7.445l7.187-2.922v6.754Z" transform="translate(0 17.327)"/></svg>